<svg xmlns="http://www.w3.org/2000/svg" viewBox="0 0 330 330"><g id="Layer_2" data-name="Layer 2"><g id="Layer_1-2" data-name="Layer 1"><path d="M168,0V155.42L278.35,45.07A164.36,164.36,0,0,0,168,0Zm18,24a9,9,0,1,1-9,9A9,9,0,0,1,186,24Zm-8,44a9,9,0,1,1,9,9A9,9,0,0,1,178,68Zm12,43a9,9,0,1,1,9-9A9,9,0,0,1,190,111Zm25-80a9,9,0,1,1-9,9A9,9,0,0,1,215,31Zm2,58a9,9,0,1,1,9-9A9,9,0,0,1,217,89Zm27-24a9,9,0,1,1,9-9A9,9,0,0,1,244,65Z" transform="translate(0 0.03)"/><path d="M282.63,49.27,172.93,159h157A164.35,164.35,0,0,0,282.63,49.27Zm-49.06,94.18a9,9,0,1,1,.22-12.73A9,9,0,0,1,233.57,143.45Zm9.64-26a9,9,0,1,1,12.72.22A9,9,0,0,1,243.21,117.44Zm25,30.13a9,9,0,1,1,.21-12.73A9,9,0,0,1,268.16,147.57Zm-.48-55.17a9,9,0,1,1,12.72.21A9,9,0,0,1,267.68,92.4Zm15.34,13a9,9,0,1,1-.22,12.72A9,9,0,0,1,283,105.39Zm8.43,44.69a9,9,0,1,1,12.73.22A9,9,0,0,1,291.45,150.08Z" transform="translate(0 0.03)"/><path d="M168,168.94v161a164.47,164.47,0,0,0,113.19-47.81Zm27.38,131.74a9,9,0,1,1-.51-12.72A9,9,0,0,1,195.38,300.68Zm.69-36.12a9,9,0,1,1-.5-12.71A9,9,0,0,1,196.07,264.56Zm2.17-34.76a9,9,0,1,1-.51-12.72A9,9,0,0,1,198.24,229.8ZM212,238.46a9,9,0,1,1,.51,12.72A9,9,0,0,1,212,238.46Zm14.79,51.78a9,9,0,1,1-.5-12.72A9,9,0,0,1,226.81,290.24Zm12.1-16.05a9,9,0,1,1,12.72-.5A9,9,0,0,1,238.91,274.19Z" transform="translate(0 0.03)"/><path d="M172.51,165,285.37,277.83A164.44,164.44,0,0,0,330,165ZM226,194a9,9,0,1,1,9-9A9,9,0,0,1,226,194Zm22,27a9,9,0,1,1,9-9A9,9,0,0,1,248,221Zm3-39a9,9,0,1,1,9,9A9,9,0,0,1,251,182Zm21,66a9,9,0,1,1,9-9A9,9,0,0,1,272,248Zm16-29a9,9,0,1,1,9-9A9,9,0,0,1,288,219Zm7-29a9,9,0,1,1,9-9A9,9,0,0,1,295,190Z" transform="translate(0 0.03)"/><path d="M74.21,212.13l-1-.69C73.94,211.34,73.94,211.34,74.21,212.13Z" transform="translate(0 0.03)"/><path d="M74.24,212.15l0,0a.06.06,0,0,1,0,0h0Z" transform="translate(0 0.03)"/><path d="M72.89,212.38c.7.72,1,.22,1.33-.2a2.23,2.23,0,0,1,.09.66c0,.5-.3.72-.87.68C72.53,213.45,73.08,212.83,72.89,212.38Z" transform="translate(0 0.03)"/><path d="M77,211.3a1.12,1.12,0,0,1-1.1-.31A.94.94,0,0,1,77,211.3Z" transform="translate(0 0.03)"/><path d="M78.45,218.53c.24.3.43.69.07,1s-.75-.27-1.13-.35c-.22-.32-.21-.63.08-.79A.71.71,0,0,1,78.45,218.53Z" transform="translate(0 0.03)"/><path d="M79.38,210.34c-.1-.13.35-.32.6-.37a.52.52,0,0,1,.65.36c.17,1.29,1.29,2.21,1.41,3.55a8.68,8.68,0,0,0-3.24-2.66C79.11,210.92,80,211.15,79.38,210.34Z" transform="translate(0 0.03)"/><path d="M82.73,219.92c.48.08.45.68.13,1.06a1.05,1.05,0,0,1-1.15.08c-.51-.38-.71-.25-.77.3,0,.17-.09.34-.29.34s-.26-.21-.28-.37a2.29,2.29,0,0,0-.76-1.19c-.2-.22-.54-.42-.44-.76s.51-.14.78-.18C81,219,81.78,219.77,82.73,219.92Z" transform="translate(0 0.03)"/><path d="M83.79,215.51c-.2-.21-.2-.46-.11-.84.32.29.47.5.35.78A.27.27,0,0,1,83.79,215.51Z" transform="translate(0 0.03)"/><path d="M83.53,162.48c-.37,0-.59-.33-.78-.63s-.56-.8-.78-1.22-.83-.82-.41-1.23,1-.16,1.43.12a22.73,22.73,0,0,1,3.4,3A12.12,12.12,0,0,1,83.53,162.48Z" transform="translate(0 0.03)"/><path d="M88.76,173c0,.19-.08.36-.25.33-.53-.08-.47.41-.72.81-.12-.67.32-.86.45-1.21,0-.08.21-.13.33-.13S88.74,173,88.76,173Z" transform="translate(0 0.03)"/><path d="M85,214.51a3.34,3.34,0,0,0,.42-2,.92.92,0,0,1,.66.9c.13,1.24,0,2.53.86,3.66a9.07,9.07,0,0,1-.29-1.43.78.78,0,0,1,.71-.91c.47,0,.63.37.7.74s.38.93.44,1.46-.46,1.58.9,1.33c.07,0,.27.3.33.48s-.21.27-.37.34c-.59.25-1.09-.09-1.63-.3A4.28,4.28,0,0,1,85,215.39,1.12,1.12,0,0,1,85,214.51Z" transform="translate(0 0.03)"/><path d="M91,169.36c-.51-.42-.53-.94-.82-1.31-.15-.2-.31-.4-.09-.61s.34.2.55.21c.64,0,.62.62,1.07,1.19C91,168.64,90.67,168.65,91,169.36Z" transform="translate(0 0.03)"/><path d="M92.49,163.4c-.16.35.13.85-.12,1.31a1.53,1.53,0,0,1-.33-1c0-.39-.07-.72-.52-.7s-.55.31-.56.69c0,1.24-1,2-1.23,3.19,0,.16-.2.14-.33.09a.39.39,0,0,0-.56.24c-.14.3.11.43.31.55a.54.54,0,0,1,.26.77,3.33,3.33,0,0,0-.22,1.87c-1.63-1.17-2.17-2.82-3.22-4.08a.64.64,0,0,1-.1-.18c-.13-.42-.9-.8-.43-1.2s1,.14,1.43.47a12,12,0,0,0,1.64,1.36,1.22,1.22,0,0,0,.08-.23c-1.3-1-.41-2-.12-3,.21-.66,0-.74-.53-.8-.36,0-.87,0-1-.34-.38-1-1.28-1.64-1.66-2.61-.12-.29.19-.28.38-.28,1.66-.05,3.34-.08,4.47,1.58.43.63,1.09.43,1.61.74S92.86,162.56,92.49,163.4Z" transform="translate(0 0.03)"/><path d="M89.71,220.35c0-.09.38-.21.6-.23s.3.23.36.43c.15.48.34,1,.45,1.46a1.31,1.31,0,0,0,.91,1.1c.46.13.5.53.62.86s-.13.48-.3.37a9.61,9.61,0,0,0-1.81-.68,1,1,0,0,1-.2-.73c0-.31,0-.59-.35-.78C89.12,221.65,89.7,221,89.71,220.35Z" transform="translate(0 0.03)"/><path d="M94.52,161c0,.34.3.74,0,1.09-.12.13-.29,0-.41-.18a.72.72,0,0,1,0-1C94.19,160.71,94.35,160.77,94.52,161Z" transform="translate(0 0.03)"/><path d="M95.48,198.81c.42.19.81.47,1.21.7a1.8,1.8,0,0,0,0,.19,7.75,7.75,0,0,1-1.36.07.74.74,0,0,1-.71-.83C94.68,198.44,95.17,198.67,95.48,198.81Z" transform="translate(0 0.03)"/><path d="M96.68,216.52a3.31,3.31,0,0,0-1.53.62,2.89,2.89,0,0,0,.32-.95,1,1,0,0,1,.73-.83c.38-.11.85-.11,1,.38S97.06,216.45,96.68,216.52Z" transform="translate(0 0.03)"/><path d="M101.24,116.56c-.13.93-.72.77-1.19.82-.13,0-.17-.1-.14-.21C100.09,116.47,100.77,116.92,101.24,116.56Z" transform="translate(0 0.03)"/><path d="M101.1,208.5c.05.47,0,.72-.21.9s-.33,0-.33-.08a1.85,1.85,0,0,1,.21-.69C100.81,208.55,101,208.54,101.1,208.5Z" transform="translate(0 0.03)"/><path d="M98.43,160.19a16.24,16.24,0,0,1-1.08-4.64,9.94,9.94,0,0,1,.12-1.65c0-.17,0-.37.21-.39s.28.16.32.34c.57,2.68,2.12,5,3.14,7.52a1.11,1.11,0,0,1-.65,1.61,1.22,1.22,0,0,0-.54.39c-.26.3-.54.29-.69-.09a15.34,15.34,0,0,0-1.08-1.63c-.19-.34-.55-.66.11-.78C98.64,160.71,98.53,160.46,98.43,160.19Z" transform="translate(0 0.03)"/><path d="M94.42,219c1.13,0,1.58-1.08,2.48-1.47.46-.2.71-.75,1.33-.22.06,0,.37-.19.6-.32-.18-.34-.4-.33-.59-.39s-.46-.32-.3-.61.36-.36.58-.14a1,1,0,0,0,1.27.18c.17.37-.05.64-.05,1,.44.1,1-.36,1.33.31s-.18.85-.67,1.12c.45.21,1,.16.85.93s-.57.43-1,.42a3.74,3.74,0,0,0-1.74.39,9.16,9.16,0,0,1-3.13.59c-.41,0-.19-.57-.41-.84-.24.14-.3.61-.65.47s-.14-.53-.21-.81S94.05,219,94.42,219Z" transform="translate(0 0.03)"/><path d="M100.88,215.56c.42-.43.63.2.87.39s.2.67,0,1.12c-.23-.51-.79-.06-.83-.27C100.83,216.41,100.54,215.89,100.88,215.56Z" transform="translate(0 0.03)"/><path d="M105,221.28a.42.42,0,0,1,0-.61.31.31,0,0,1,.44-.09.49.49,0,0,1-.09.62C105.2,221.3,105.07,221.39,105,221.28Z" transform="translate(0 0.03)"/><path d="M105.6,121.49c-.25.32-.53.4-1,.13C105,121.26,105.33,121.66,105.6,121.49Z" transform="translate(0 0.03)"/><path d="M106.66,117.23s-.15.15-.21.14c-.39-.09-.51-.38-.53-.84C106.37,116.67,106.62,116.86,106.66,117.23Z" transform="translate(0 0.03)"/><path d="M106.08,122.53l-.92,0c0-.15,0-.2.06-.21.4-.21.93-.54,1.26-.23S106.4,122.54,106.08,122.53Z" transform="translate(0 0.03)"/><path d="M106.82,219.21a.33.33,0,0,1,.1-.42.18.18,0,0,1,.31,0,.29.29,0,0,1-.07.42C107,219.32,106.9,219.34,106.82,219.21Z" transform="translate(0 0.03)"/><path d="M107.72,123.21c-.17.33-.3.59-.65.56,0,0-.16-.23-.14-.33C107,123,107.32,123.11,107.72,123.21Z" transform="translate(0 0.03)"/><path d="M107.4,119.74c-.61-.65.21-1,.31-1.38.38-.28.68-.57,1.06-.06a.86.86,0,0,1-.06,1.25C108.39,119.79,107.87,120.25,107.4,119.74Z" transform="translate(0 0.03)"/><path d="M114.37,174.24l-1.07,1C113.33,174.37,113.87,174.31,114.37,174.24Z" transform="translate(0 0.03)"/><path d="M113.73,241.74a1.89,1.89,0,0,1-.35-1.73A2.89,2.89,0,0,1,113.73,241.74Z" transform="translate(0 0.03)"/><path d="M114.77,164.27c.19-.62.13-1.35.8-1.73A2.82,2.82,0,0,1,114.77,164.27Z" transform="translate(0 0.03)"/><path d="M114.93,157.73l0,0h0Z" transform="translate(0 0.03)"/><path d="M115,157.76c.2-.15.43-.46.64-.23.35.4,0,.78-.13,1.18C115,158.47,115.13,158.05,115,157.76Z" transform="translate(0 0.03)"/><path d="M115.53,164.47c1-1,1.46-2.56,3-3.07.25.8-.73,1.11-.49,1.89.21,0,.49-.3.68.06a.87.87,0,0,1,0,.88c-.43.57-.9,1.11-1.37,1.65-.13.16-.5.22-.51.12,0-.91-.71-.9-1.29-1.08A.32.32,0,0,1,115.53,164.47Z" transform="translate(0 0.03)"/><path d="M119.12,153.94c-.23.5-.47,1-.71,1.48.23-.5-.07-1.19.26-1.69.08-.13.17-.32.36-.23S119.18,153.79,119.12,153.94Z" transform="translate(0 0.03)"/><path d="M123,151.29c0,.3-.23.5-.39.71a.4.4,0,0,1-.6.12c-.08-.05-.19-.16-.18-.22a.32.32,0,0,1,.41-.29C122.55,151.67,122.56,151.11,123,151.29Z" transform="translate(0 0.03)"/><path d="M122.7,152.57a.58.58,0,0,1,.56.58s-.16.14-.2.12A.57.57,0,0,1,122.7,152.57Z" transform="translate(0 0.03)"/><path d="M124.43,149.38a3.88,3.88,0,0,0-2.31,1.48c-.23-1.43.15-2,1.25-2,.27,0,.47,0,.6-.32a.57.57,0,0,1,1-.27c.31.31,0,.66-.24.95A.46.46,0,0,1,124.43,149.38Z" transform="translate(0 0.03)"/><path d="M124.8,183.15a.62.62,0,0,1,.31.72s-.19.09-.22.06A.62.62,0,0,1,124.8,183.15Z" transform="translate(0 0.03)"/><path d="M124.54,156.91a1.79,1.79,0,0,1,1.68,0A2.91,2.91,0,0,1,124.54,156.91Z" transform="translate(0 0.03)"/><path d="M126.79,183.41c.1.18,0,.31-.1.42s-.23.15-.3,0a.52.52,0,0,1,.07-.36A.21.21,0,0,1,126.79,183.41Z" transform="translate(0 0.03)"/><path d="M133.23,155.62c-1.47,3.21-6,8.73-7.28,8.92a48.66,48.66,0,0,0,5.09-6.16A25.26,25.26,0,0,1,133.23,155.62Z" transform="translate(0 0.03)"/><path d="M131.75,212.36c.39.27,1.09.26.84,1-.09.24-.26.24-.48.18C131.34,213.3,131.84,212.75,131.75,212.36Z" transform="translate(0 0.03)"/><path d="M132.74,165.58c-.33-.45-.23-.77.28-1.23C132.89,164.93,132.82,165.26,132.74,165.58Z" transform="translate(0 0.03)"/><path d="M134.73,165.8a1.81,1.81,0,0,1,0,1.64A2.23,2.23,0,0,1,134.73,165.8Z" transform="translate(0 0.03)"/><path d="M138.1,175.1l.44.86C138,175.89,137.77,175.73,138.1,175.1Z" transform="translate(0 0.03)"/><path d="M139.89,159.35a29.9,29.9,0,0,1,1.83,3.78c.08.2.15.38,0,.55s-.48.18-.63-.07c-.72-1.27-1.87-2.35-1.91-3.93,0-.31,0-.54.32-.65S139.8,159.18,139.89,159.35Z" transform="translate(0 0.03)"/><path d="M144,159.34c.12.95-.42,1.19-1.12,1.48A2.07,2.07,0,0,1,144,159.34Z" transform="translate(0 0.03)"/><path d="M145.18,157.9c.16-.18.53-.2.4-.43-.3-.51-.13-.84.33-.87a1.23,1.23,0,0,1,1.16.5c.24.37.17,1.13,1,.8.15-.05.08.18.06.3s-.05.63-.36.61a12.08,12.08,0,0,1-2.68-.35C144.51,158.29,145.1,158.05,145.18,157.9Z" transform="translate(0 0.03)"/><path d="M148.35,169.2c-.15-.15-.19-.3,0-.44s.24-.07.34,0,.22.31.13.46S148.48,169.27,148.35,169.2Z" transform="translate(0 0.03)"/><path d="M147.31,170.13c-.05-.25.19-.31.37-.39a1.35,1.35,0,0,1,1.42.29c.56.44.24,1,.05,1.48-.26-.71-.65-1.1-1.38-1A.43.43,0,0,1,147.31,170.13Z" transform="translate(0 0.03)"/><path d="M152.17,163.16c.05.43.25.87,0,1.28a3.9,3.9,0,0,0-.47,1.61c0,.29-.06.65-.43.7s-.47-.25-.64-.37c-.44-.56-.83-1.07-.1-1.57s.44-1.3.94-1.8c.12-.13.09-.44.37-.35A.53.53,0,0,1,152.17,163.16Z" transform="translate(0 0.03)"/><path d="M155.2,101.83a19.14,19.14,0,0,1-1.91,2.82A6.34,6.34,0,0,1,155.2,101.83Z" transform="translate(0 0.03)"/><path d="M153.13,159.48a3.5,3.5,0,0,0-1.42-.39c-.63,0-1.07.16-.78.95.12.32.11.6-.19.78a.35.35,0,0,1-.46-.06c-.3-.28-.23-.56-.19-.92.16-1.41,1.14-1.72,2.32-1.83.57,0,1-.27,1-.92a2,2,0,0,1,.24-.54c.15-.38.37-.8.79-.78s.33.59.43.91c.17.54.56,1,.29,1.65,0,.11,0,.34.18.29.6-.21.82.56,1.33.63C155.41,158.93,154.35,159.92,153.13,159.48Z" transform="translate(0 0.03)"/><path d="M158.55,157.11c-.22.46-.42.94-.68,1.4A1.37,1.37,0,0,1,158.55,157.11Z" transform="translate(0 0.03)"/><path d="M161.68,119.38,162,119v6l-.34-.16a14.91,14.91,0,0,1-3.21-1.86,1.45,1.45,0,0,1-.7-1.4c.15-.59.63-.81,1.29-.84A3.38,3.38,0,0,0,161.68,119.38Z" transform="translate(0 0.03)"/><path d="M161.37,126.66a1.48,1.48,0,0,1,.63-.28v1.25l-.15.07c-.47.24-.67-.25-.85-.52S161.19,126.8,161.37,126.66Z" transform="translate(0 0.03)"/><path d="M113.42,115a1,1,0,0,1-.06,1.21C113,115.76,113.21,115.4,113.42,115Z" transform="translate(0 0.03)"/><path d="M116.94,118.59a2.9,2.9,0,0,0-1.14.29,1.35,1.35,0,0,1-1.82-1.33,8.08,8.08,0,0,1-.09-1.2,1,1,0,0,1,1.88,0c0,.36.27.74.23,1.08C115.94,118.12,116.23,118.46,116.94,118.59Z" transform="translate(0 0.03)"/><path d="M118.54,115.78c.21.21.35.44.14.71a3.74,3.74,0,0,1-2.39-.16.63.63,0,0,1,.13-.78A2.7,2.7,0,0,1,118.54,115.78Z" transform="translate(0 0.03)"/><path d="M119.28,115.13c.1.15.15.32,0,.44s-.25,0-.31-.12a.51.51,0,0,1,0-.36C119,115,119.18,115,119.28,115.13Z" transform="translate(0 0.03)"/><path d="M119.87,117.16s.08-.2.13-.2a.4.4,0,1,1-.13.2Z" transform="translate(0 0.03)"/><path d="M120.61,117.48a0,0,0,0,0,0,0h0Z" transform="translate(0 0.03)"/><path d="M120.61,117.48a1.67,1.67,0,0,1,1.75-.87c-.22.37-.45.73-.67,1.11-.13.22-.09.54-.57.42A.57.57,0,0,1,120.61,117.48Z" transform="translate(0 0.03)"/><path d="M122.37,116.61c.6.46.55,1.08-.15,1.61A4.12,4.12,0,0,1,122.37,116.61Z" transform="translate(0 0.03)"/><path d="M120.39,121.45c-.11.09-.32,0-.41.07-.15-.62.6-1-.07-1.42a.13.13,0,0,1,0-.24c.93-.4,1.48-1.51,2.71-1.37.2,0,.41,0,.55.17s0,.25-.06.36A10.55,10.55,0,0,1,120.39,121.45Z" transform="translate(0 0.03)"/><path d="M123,136.42c.05.28.16.57-.26.58-.19,0-.28-.2-.29-.37a1.19,1.19,0,0,1,.27-1.11c.17-.15.45,0,.67.07s.1.3,0,.4S122.94,136.18,123,136.42Z" transform="translate(0 0.03)"/><path d="M123.85,136.61a.21.21,0,0,1,.08-.32.25.25,0,0,1,.34.06c.09.13,0,.24-.08.32A.25.25,0,0,1,123.85,136.61Z" transform="translate(0 0.03)"/><path d="M125.7,138.63c.38.27.13.6-.24.88s-.92.37-1.48.35c-.29,0-.58-.24-.44-.54s.11-.45-.19-.71,0-.53.28-.6A2.55,2.55,0,0,1,125.7,138.63Z" transform="translate(0 0.03)"/><path d="M53.36,161l-.4.34a1,1,0,0,0-.19,1.09.35.35,0,0,0,.31.16c.43-.12.37-.55.44-.89A.63.63,0,0,0,53.36,161Zm0,0-.4.34a1,1,0,0,0-.19,1.09.35.35,0,0,0,.31.16c.43-.12.37-.55.44-.89A.63.63,0,0,0,53.36,161Zm0,0-.4.34a1,1,0,0,0-.19,1.09.35.35,0,0,0,.31.16c.43-.12.37-.55.44-.89A.63.63,0,0,0,53.36,161ZM148,194.22a.66.66,0,0,0-.82,0,.23.23,0,0,0,0,.35c.28.26.55.12.8,0S148.15,194.31,148,194.22ZM53.36,161l-.4.34a1,1,0,0,0-.19,1.09.35.35,0,0,0,.31.16c.43-.12.37-.55.44-.89A.63.63,0,0,0,53.36,161Zm0,0-.4.34a1,1,0,0,0-.19,1.09.35.35,0,0,0,.31.16c.43-.12.37-.55.44-.89A.63.63,0,0,0,53.36,161Zm99.32,48.16c-.23.11-.34.42-.18.58.31.29.59.08.83-.15C153.28,209.17,153.1,208.94,152.68,209.13Zm.65.43h0v0Zm3.44,1.36c-1.13-.47-2.05-1.62-3.43-1.33a1.46,1.46,0,0,0-.06.42,19.84,19.84,0,0,0,3.14,1.46c.17,0,.35.11.44-.09S156.92,211,156.77,210.92Zm1.25.89c-.05,0-.11.1-.1.13.11.33.38.4.76.45C158.55,212,158.38,211.75,158,211.81Zm3.39.81-1.28-.33c-.16,0-.27,0-.29.15a.51.51,0,0,0,.08.35,2.29,2.29,0,0,0,1.43,0c.21,0,.43.08.65.1v-.3ZM161,203c-.27.46.17.76.44,1a2.37,2.37,0,0,1,.59,1v-2.33A.93.93,0,0,0,161,203Zm1,3a2.58,2.58,0,0,0,0,1.49V206A.44.44,0,0,1,162,206.07ZM53.36,161l-.4.34a1,1,0,0,0-.19,1.09.35.35,0,0,0,.31.16c.43-.12.37-.55.44-.89A.63.63,0,0,0,53.36,161Zm0,0-.4.34a1,1,0,0,0-.19,1.09.35.35,0,0,0,.31.16c.43-.12.37-.55.44-.89A.63.63,0,0,0,53.36,161Zm0,0-.4.34a1,1,0,0,0-.19,1.09.35.35,0,0,0,.31.16c.43-.12.37-.55.44-.89A.63.63,0,0,0,53.36,161Zm0,0-.4.34a1,1,0,0,0-.19,1.09.35.35,0,0,0,.31.16c.43-.12.37-.55.44-.89A.63.63,0,0,0,53.36,161Zm0,0-.4.34a1,1,0,0,0-.19,1.09.35.35,0,0,0,.31.16c.43-.12.37-.55.44-.89A.63.63,0,0,0,53.36,161Zm0,0-.4.34a1,1,0,0,0-.19,1.09.35.35,0,0,0,.31.16c.43-.12.37-.55.44-.89A.63.63,0,0,0,53.36,161Zm36.49,76.64c-.11-.11-.24-.18-.35-.06a.31.31,0,0,0,0,.27.24.24,0,0,0,.34.11C90,237.86,89.94,237.73,89.85,237.61ZM53.36,161l-.4.34a1,1,0,0,0-.19,1.09.35.35,0,0,0,.31.16c.43-.12.37-.55.44-.89A.63.63,0,0,0,53.36,161Zm36.49,76.64c-.11-.11-.24-.18-.35-.06a.31.31,0,0,0,0,.27.24.24,0,0,0,.34.11C90,237.86,89.94,237.73,89.85,237.61ZM53.36,161l-.4.34a1,1,0,0,0-.19,1.09.35.35,0,0,0,.31.16c.43-.12.37-.55.44-.89A.63.63,0,0,0,53.36,161Zm36.49,76.64c-.11-.11-.24-.18-.35-.06a.31.31,0,0,0,0,.27.24.24,0,0,0,.34.11C90,237.86,89.94,237.73,89.85,237.61ZM53.36,161l-.4.34a1,1,0,0,0-.19,1.09.35.35,0,0,0,.31.16c.43-.12.37-.55.44-.89A.63.63,0,0,0,53.36,161Zm36.49,76.64c-.11-.11-.24-.18-.35-.06a.31.31,0,0,0,0,.27.24.24,0,0,0,.34.11C90,237.86,89.94,237.73,89.85,237.61ZM53.36,161l-.4.34a1,1,0,0,0-.19,1.09.35.35,0,0,0,.31.16c.43-.12.37-.55.44-.89A.63.63,0,0,0,53.36,161Zm36.49,76.64c-.11-.11-.24-.18-.35-.06a.31.31,0,0,0,0,.27.24.24,0,0,0,.34.11C90,237.86,89.94,237.73,89.85,237.61ZM53.36,161l-.4.34a1,1,0,0,0-.19,1.09.35.35,0,0,0,.31.16c.43-.12.37-.55.44-.89A.63.63,0,0,0,53.36,161Zm36.49,76.64c-.11-.11-.24-.18-.35-.06a.31.31,0,0,0,0,.27.24.24,0,0,0,.34.11C90,237.86,89.94,237.73,89.85,237.61ZM53.36,161l-.4.34a1,1,0,0,0-.19,1.09.35.35,0,0,0,.31.16c.43-.12.37-.55.44-.89A.63.63,0,0,0,53.36,161Zm36.49,76.64c-.11-.11-.24-.18-.35-.06a.31.31,0,0,0,0,.27.24.24,0,0,0,.34.11C90,237.86,89.94,237.73,89.85,237.61ZM53.36,161l-.4.34a1,1,0,0,0-.19,1.09.35.35,0,0,0,.31.16c.43-.12.37-.55.44-.89A.63.63,0,0,0,53.36,161Zm36.49,76.64c-.11-.11-.24-.18-.35-.06a.31.31,0,0,0,0,.27.24.24,0,0,0,.34.11C90,237.86,89.94,237.73,89.85,237.61ZM53.36,161l-.4.34a1,1,0,0,0-.19,1.09.35.35,0,0,0,.31.16c.43-.12.37-.55.44-.89A.63.63,0,0,0,53.36,161Zm36.49,76.64c-.11-.11-.24-.18-.35-.06a.31.31,0,0,0,0,.27.24.24,0,0,0,.34.11C90,237.86,89.94,237.73,89.85,237.61ZM53.36,161l-.4.34a1,1,0,0,0-.19,1.09.35.35,0,0,0,.31.16c.43-.12.37-.55.44-.89A.63.63,0,0,0,53.36,161Zm36.49,76.64c-.11-.11-.24-.18-.35-.06a.31.31,0,0,0,0,.27.24.24,0,0,0,.34.11C90,237.86,89.94,237.73,89.85,237.61ZM53.36,161l-.4.34a1,1,0,0,0-.19,1.09.35.35,0,0,0,.31.16c.43-.12.37-.55.44-.89A.63.63,0,0,0,53.36,161Zm36.49,76.64c-.11-.11-.24-.18-.35-.06a.31.31,0,0,0,0,.27.24.24,0,0,0,.34.11C90,237.86,89.94,237.73,89.85,237.61ZM53.36,161l-.4.34a1,1,0,0,0-.19,1.09.35.35,0,0,0,.31.16c.43-.12.37-.55.44-.89A.63.63,0,0,0,53.36,161Zm36.49,76.64c-.11-.11-.24-.18-.35-.06a.31.31,0,0,0,0,.27.24.24,0,0,0,.34.11C90,237.86,89.94,237.73,89.85,237.61ZM53.36,161l-.4.34a1,1,0,0,0-.19,1.09.35.35,0,0,0,.31.16c.43-.12.37-.55.44-.89A.63.63,0,0,0,53.36,161Zm36.49,76.64c-.11-.11-.24-.18-.35-.06a.31.31,0,0,0,0,.27.24.24,0,0,0,.34.11C90,237.86,89.94,237.73,89.85,237.61ZM53.36,161l-.4.34a1,1,0,0,0-.19,1.09.35.35,0,0,0,.31.16c.43-.12.37-.55.44-.89A.63.63,0,0,0,53.36,161Zm36.49,76.64c-.11-.11-.24-.18-.35-.06a.31.31,0,0,0,0,.27.24.24,0,0,0,.34.11C90,237.86,89.94,237.73,89.85,237.61ZM53.36,161l-.4.34a1,1,0,0,0-.19,1.09.35.35,0,0,0,.31.16c.43-.12.37-.55.44-.89A.63.63,0,0,0,53.36,161Zm36.49,76.64c-.11-.11-.24-.18-.35-.06a.31.31,0,0,0,0,.27.24.24,0,0,0,.34.11C90,237.86,89.94,237.73,89.85,237.61ZM53.36,161l-.4.34a1,1,0,0,0-.19,1.09.35.35,0,0,0,.31.16c.43-.12.37-.55.44-.89A.63.63,0,0,0,53.36,161Zm36.49,76.64c-.11-.11-.24-.18-.35-.06a.31.31,0,0,0,0,.27.24.24,0,0,0,.34.11C90,237.86,89.94,237.73,89.85,237.61ZM53.36,161l-.4.34a1,1,0,0,0-.19,1.09.35.35,0,0,0,.31.16c.43-.12.37-.55.44-.89A.63.63,0,0,0,53.36,161Zm36.49,76.64c-.11-.11-.24-.18-.35-.06a.31.31,0,0,0,0,.27.24.24,0,0,0,.34.11C90,237.86,89.94,237.73,89.85,237.61Zm37.72-10.2c.33.32.56.36.83.11A.58.58,0,0,0,127.57,227.41ZM53.36,161l-.4.34a1,1,0,0,0-.19,1.09.35.35,0,0,0,.31.16c.43-.12.37-.55.44-.89A.63.63,0,0,0,53.36,161Zm36.49,76.64c-.11-.11-.24-.18-.35-.06a.31.31,0,0,0,0,.27.24.24,0,0,0,.34.11C90,237.86,89.94,237.73,89.85,237.61Zm37.72-10.2c.33.32.56.36.83.11A.58.58,0,0,0,127.57,227.41ZM53.36,161l-.4.34a1,1,0,0,0-.19,1.09.35.35,0,0,0,.31.16c.43-.12.37-.55.44-.89A.63.63,0,0,0,53.36,161Zm36.49,76.64c-.11-.11-.24-.18-.35-.06a.31.31,0,0,0,0,.27.24.24,0,0,0,.34.11C90,237.86,89.94,237.73,89.85,237.61Zm37.72-10.2c.33.32.56.36.83.11A.58.58,0,0,0,127.57,227.41Zm34,19.24c-.05.26.34.3.45.44v-.63A1,1,0,0,0,161.55,246.65ZM53.36,161l-.4.34a1,1,0,0,0-.19,1.09.35.35,0,0,0,.31.16c.43-.12.37-.55.44-.89A.63.63,0,0,0,53.36,161Zm36.49,76.64c-.11-.11-.24-.18-.35-.06a.31.31,0,0,0,0,.27.24.24,0,0,0,.34.11C90,237.86,89.94,237.73,89.85,237.61Zm37.72-10.2c.33.32.56.36.83.11A.58.58,0,0,0,127.57,227.41ZM53.36,161l-.4.34a1,1,0,0,0-.19,1.09.35.35,0,0,0,.31.16c.43-.12.37-.55.44-.89A.63.63,0,0,0,53.36,161Zm36.49,76.64c-.11-.11-.24-.18-.35-.06a.31.31,0,0,0,0,.27.24.24,0,0,0,.34.11C90,237.86,89.94,237.73,89.85,237.61Zm37.72-10.2c.33.32.56.36.83.11A.58.58,0,0,0,127.57,227.41ZM53.36,161l-.4.34a1,1,0,0,0-.19,1.09.35.35,0,0,0,.31.16c.43-.12.37-.55.44-.89A.63.63,0,0,0,53.36,161Zm36.49,76.64c-.11-.11-.24-.18-.35-.06a.31.31,0,0,0,0,.27.24.24,0,0,0,.34.11C90,237.86,89.94,237.73,89.85,237.61Zm37.72-10.2c.33.32.56.36.83.11A.58.58,0,0,0,127.57,227.41ZM53.36,161l-.4.34a1,1,0,0,0-.19,1.09.35.35,0,0,0,.31.16c.43-.12.37-.55.44-.89A.63.63,0,0,0,53.36,161Zm36.49,76.64c-.11-.11-.24-.18-.35-.06a.31.31,0,0,0,0,.27.24.24,0,0,0,.34.11C90,237.86,89.94,237.73,89.85,237.61Zm37.72-10.2c.33.32.56.36.83.11A.58.58,0,0,0,127.57,227.41ZM53.36,161l-.4.34a1,1,0,0,0-.19,1.09.35.35,0,0,0,.31.16c.43-.12.37-.55.44-.89A.63.63,0,0,0,53.36,161Zm36.49,76.64c-.11-.11-.24-.18-.35-.06a.31.31,0,0,0,0,.27.24.24,0,0,0,.34.11C90,237.86,89.94,237.73,89.85,237.61Zm37.72-10.2c.33.32.56.36.83.11A.58.58,0,0,0,127.57,227.41ZM162,91.19V0a165,165,0,0,0,0,329.94V247.26l0,.05a.65.65,0,0,1-.84.07c-1.42-1-3.12-.76-4.65-1.29a3,3,0,0,1-2-3.56c.08-.28.3-.41.5-.57a5.45,5.45,0,0,0,.87-.79c1.2-1.45,1.08-1.91-.72-2.68a.83.83,0,0,1-.62-1c.1-.55.56-.35.9-.31,2.21.2,4.41.54,6.63.61v-1.83a39.29,39.29,0,0,1-6.35-.76,30.91,30.91,0,0,1-3.93-.9c.67-.38,1.42-.15,2.13-.26.33-.06.73,0,.79-.43.12-.83.77-1.17,1.35-1.59a50.42,50.42,0,0,0,6-5.3v-6.83c-1.95.78-4,1.36-5.88,2.25-.51.24-1,.42-1.54.66a7.21,7.21,0,0,1-4.92.71,14.71,14.71,0,0,0,2.16-1.5,3.66,3.66,0,0,0,1.35-3.52,16.32,16.32,0,0,1-.18-2.42,3.45,3.45,0,0,0-1.08-2.34,1.21,1.21,0,0,1-.3-1c-.36.06-.64.43-1.11.05.36-.22.8-.42.56-1s-.69-.37-1.06-.44-.67,0-1-.07-.64-.21-.64-.64a.59.59,0,0,1,.53-.7,7.53,7.53,0,0,1,1.71.11c.39,0,.79,0,.8-.48s-.4-.58-.78-.6c-.6,0-1.21-.06-1.81-.08-.9,0-1.59.2-1.72,1.22,0,.27-.11.57-.46.52s-.31-.32-.34-.56a1.57,1.57,0,0,0-1.53-1.41,8.07,8.07,0,0,0-2.5-.23c-2,.47-3.74-.62-5.62-.82l-1.3-.14c-.23,0-.55,0-.58-.31s.27-.51.58-.56c.65-.11,1.32-.05,2-.19,3.83-.8,7.53-2,11.25-3.12a34,34,0,0,1,13.35-1.78H162v-2.28c-.94-.23-1.87-.46-2.8-.73-.43-.12-1.29-.05-1.11-.72s.93-.28,1.4-.06a21.05,21.05,0,0,0,2.51.93V198a1.73,1.73,0,0,0-.33-.17,25.71,25.71,0,0,1-3.64-1.64c-.56-.34-1.45-.2-1.8-.49-1-.82-2.36-.91-3.18-2-.37-.49-.75-1.12-1.57-.79-.26.11-.49-.18-.69-.37a2.55,2.55,0,0,0-1.47-.67c-1.21-.15-1.62-.85-1.07-1.91a4.41,4.41,0,0,0,.28-.52.35.35,0,0,0-.25-.48c-.18-.06-.41,0-.42.15,0,.94-.9,1.48-1,2.43a1.44,1.44,0,0,0,.87,1.64c2.37,1.27,4.9,2.12,7.35,3.2.3.13.67.15.85.54a1.28,1.28,0,0,1-1.37.27,15.58,15.58,0,0,0-5.44-.17,9.16,9.16,0,0,0-3.95,2.18,11.14,11.14,0,0,1-1.49,1,4.31,4.31,0,0,0-2,2.52c-.23.64-.46,1.13-1.37.72-.61-.28-1.1.26-1.4.69-1,1.42-2.45,1.62-4.05,1.48a11,11,0,0,1-3.1-.43,6.36,6.36,0,0,1-4-4.54c-.44-1.57.74-2.52,1.78-3.26a11.37,11.37,0,0,1,5.3-2,42.76,42.76,0,0,1,6.31-.19,17.71,17.71,0,0,0,4.93-.39c.14,0,.27,0,.27-.2s-.14-.36-.37-.42a22.52,22.52,0,0,0-3.36-.75c-2.7-.17-5.31-1-8-1.4a3.46,3.46,0,0,1-1.67-.73,4,4,0,0,0-4.34-.05c-.28.21-.51.64-.91.49s-.21-.65-.25-1-.12-.53-.18-.8c-.27-1.29-.26-1.22-1.5-1a6.35,6.35,0,0,1-2.71-.28c.13-.44.43-.36.63-.39a113.88,113.88,0,0,1,12.12-1.07c2.73,0,5.44-.26,8.2,0a11.39,11.39,0,0,0,5.92-1.41c3.28-1.57,6.59-3.08,9.75-4.87.51-.29,1.08-.49,1.35-1.09a.68.68,0,0,1,.46-.33,3.11,3.11,0,0,0,.44-.06V172.3a2,2,0,0,0-.61-.37c-.59-.21-.78.58-1.25.79a4.07,4.07,0,0,1-1.81.45c-.32,0-.69,0-.54.46.21.61-.19.64-.56.8s-1.25.27-1.13.9a2.53,2.53,0,0,0,1.41,1.79c.33.16.73.08,1.08.42a3.67,3.67,0,0,1-1.67.6,20.92,20.92,0,0,1-2.92.57c-2.57.17-5,1-7.63.87a38.24,38.24,0,0,0-4.66.3c-.24,0-.56.08-.57.32,0,1-.57,2.06.25,3.06a.59.59,0,0,1,.15.65c-.12.26-.38.23-.61.18a1.09,1.09,0,0,0-1.08.31c-.87.77-1.54.68-2.31-.23-.14-.16-.15-.54-.48-.44s-.22.42-.21.69a1.66,1.66,0,0,1-2.17,1.68,1,1,0,0,0-1,.18,1.25,1.25,0,0,1-1.65-.22,8.2,8.2,0,0,0-1.62-1.06c-.7-.46-1,.13-1.51,0a9.25,9.25,0,0,0-3.23-.11,1.6,1.6,0,0,0-.83.26.81.81,0,0,1-1.29,0,1.13,1.13,0,0,0-1.36-.12,2,2,0,0,1-2.49-.26c-.2-.21-.32-.21-.5-.09a3.1,3.1,0,0,1-1.57.16c-.72,0-.82-.48-1-1a.78.78,0,0,1,.58-1.08,3.52,3.52,0,0,1,1.07-.17c.23,0,.57.16.36.53-.07.12-.49.07-.26.35s.42,0,.62-.09c.43-.26.12-.75.32-1.18.5.67.76.51,1.18-.06s.72-1.3,1.23-2c.24.73-.29,1.25,0,1.88s.81,1,1.29.31,1.38-.82,1.58-1.69a.2.2,0,0,1,.32-.1.32.32,0,0,1,.12.26c-.06.25-.16.5-.24.75-.12.4,0,.69.47.67.88,0,2.29-1.62,2.14-2.46-.09-.49-.42-1,.45-.86-.06-.69.65-1.08.62-1.76,0-.4-.17-.85.4-1,0,0,.13-.09.12-.13-.53-1.64.31-3,.71-4.41s1-2.87,1.54-4.3c0-.15.09-.3.17-.55-.44.05-.44.42-.62.6s-.28.67-.79.12c-.36-.4-.82.17-1.2.37s-.58.61-1.14.32-.49.28-.46.52c.11,1.25-.73,2.09-1.13,3.12-.17.44-.56.51-1,.47s-.83,0-.84.46c0,1.52-1.26,2.13-2.18,2.92a7.9,7.9,0,0,0-2,2.29c-.07.15-.15.29-.34.31-.14-1.12-.42-1.37-1.56-1.13a2.91,2.91,0,0,1-1.65-.11,6,6,0,0,0-3.13,0c-.77.17-1.68.42-1.28,1.65.11.34-.16.4-.4.39a16.29,16.29,0,0,0-2.88.33c-.7.1-.89-.11-.72-.84.23-1,.62-1.94-.06-3-.28-.43.41-1.38.94-1.35a1.65,1.65,0,0,0,1-.1,1.93,1.93,0,0,1-1.24-2.17,3.08,3.08,0,0,1,1.36-2.21A4.61,4.61,0,0,1,106,168.5c-1.06-1-.4-2.46.58-3.61a3,3,0,0,1-2.13-.71.72.72,0,0,0-.93.06c-.24.19-.12.49,0,.74a1.87,1.87,0,0,1,.26.56c0,.37-.1.79-.47.89s-.33-.37-.51-.55a1,1,0,0,1-.24-.66c-.19-1.5-1-2-2.32-1.33a8.45,8.45,0,0,0-2.79,2.1c-.14.16-.17.5-.49.38s-.28-.38-.26-.61.11-.6-.17-.74-.49.23-.68.42a25.34,25.34,0,0,0-2.94,3,1.3,1.3,0,0,1-.19.22.74.74,0,0,0,0,1.09c.41.36.68-.1.86-.37a22,22,0,0,1,2.74-3.08c0,.68-.7,1.13-.13,1.7a2.15,2.15,0,0,1,2.9.13,1.32,1.32,0,0,1-.26,1.74c-.3.32-.71.61-.19,1.05a.79.79,0,0,0,1.22-.22,8.83,8.83,0,0,1,2-1.91.46.46,0,0,1,.52-.09,2.65,2.65,0,0,1-.39,1.37c-1.1,2.17-2.15,4.36-3.1,6.62a3.87,3.87,0,0,1-1.07,1.63c-.38.3-.77.59-1.31.07-.34-.33-.84,0-1.3-.19-.15-.07-.57.41-.62.79a2.12,2.12,0,0,1-.94,1.51c-.21.14-.28.31-.55.14s-.4-.32-.31-.58a2.53,2.53,0,0,1,.46-1.08c.71-.63.6-1.76,1.47-2.33.24-.16-.15-.92,0-1.42s-.07-1,.58-1.1a.41.41,0,0,0,.18-.67c-.22-.31-.36,0-.56.06-.94.24-1.27,1-1.57,1.81a2.56,2.56,0,0,1-2.35.52.48.48,0,0,1-.1-.17c-.11-.18.55-.25.06-.45-.27-.12-.49.08-.6.37,0,.1-.17.16-.28.27-.52-1.85-.6-1.87-2-.65-.55.51-1.12,1-1.68,1.5-.19.18-.49.33-.44.62.31,1.62-.53.39-1,.3l-.33,1.59h-.19c0-.7,0-1.41,0-2.11a.44.44,0,0,1,.4-.48c1.23-.21,1.77-1.14,2.17-2.18a4.13,4.13,0,0,1,1.1-1.83.7.7,0,0,0,.17-.9,3.5,3.5,0,0,1-.19-.79c-.17-1.37-.35-1.23-1.66-1.33s-1.67.74-2.17,1.51-1.06.25-1.53-.06c-1.43-.93-1.41-.94-2.63.19s-2.73,2.44-4,3.7c-1.09,1-1,1.42.46,2.05a49,49,0,0,1,7.12,4.19.94.94,0,0,1,.51.84c0,.43-.43.45-.75.52a33.9,33.9,0,0,1-5.51.81,1.28,1.28,0,0,0-1.36,1.27,25.69,25.69,0,0,0,.13,3.61c.09,1.27.48,2.68-.67,3.72-.22.19.51.77-.09,1.07.15.23.09.34-.15.45s-.26.43-.06.67.53.63.85.38c.75-.61,2-.39,2.57-1.36-.27.73-.52,1.47-.82,2.18-.08.17-.29.29-.11.5s.42.16.63,0a1.32,1.32,0,0,0,.61-.86,3.74,3.74,0,0,1,.83-1.47c.3.34.39.83.91.79a.45.45,0,0,0-.09-.63c-.74-.69-.24-.94.31-1.19a7.25,7.25,0,0,1,2.09-.43,1.82,1.82,0,0,1-.55,1.16,14.48,14.48,0,0,0-2.44,4.81,1.81,1.81,0,0,0,0,1c.34,1.36.92,1.57,1.94.69a3.58,3.58,0,0,0,.29-.27,2.57,2.57,0,0,1-.48,3,2.68,2.68,0,0,0-.43.76c-.18.35-.33.72-.52,1.06s-1,.55-.87,1.2a6.22,6.22,0,0,0,1,2.21A9.18,9.18,0,0,0,87,211.54c1.33.26,1,1.26.82,1.89-.3,1.36.92,2.07,1.26,3.14.08.25.57.12.79-.1a1.29,1.29,0,0,1,1.49-.18,5.34,5.34,0,0,0,2.75-.14c.15,0,.39-.17.39-.26-.1-1.09,1-1.26,1.48-1.87A5.1,5.1,0,0,1,98.24,213c.53-.19,1-.44.8-1a1,1,0,0,0-1.23-.68,6.36,6.36,0,0,1-4.19-.5c-.56-.29-.89.26-1.38.27a11.78,11.78,0,0,1-2.92-.61c.57-.21,1.13-.45,1.71-.65a1.85,1.85,0,0,0,1.45-2.11c-.06-.68,1.69-1.33,2.32-.9a9,9,0,0,0,1.67,1.2,1.07,1.07,0,0,0,.67.11c1.09-.23,1.76-1.16,2.72-1.61a.36.36,0,0,0-.16-.68c-.65-.11-.48-.45-.44-.87a19.74,19.74,0,0,0-.43-3.31c0-.52-.6-.69-1.1-.77a16.47,16.47,0,0,0-4,.05c-.76,0-1.56.43-2.31-.23-.11-.1-.28-.13-.35,0-.52,1.13-1.27,0-1.91.06-.28,0-.22-1.61.2-1.77.72-.28.75-1.13,1.36-1.5.3-.18,0-.46-.12-.69s-.71-.44,0-.72c.29-.12,0-.32-.19-.38a10,10,0,0,0-1.56-.49,2.59,2.59,0,0,1-2.25-2.37c-.25-1.32-.32-1.32,1-1.49,5.57-.74,11.14-1.49,16.72-2.21A24,24,0,0,1,107,189c.34,0,.75.13.83.48s-.38.26-.58.39a4.45,4.45,0,0,0-1.18,1.15c-.27.36-.51.79-1.1.69s-.52.34-.67.61a18.63,18.63,0,0,0-1.81,6.68,26.91,26.91,0,0,0,2,13.3,2.7,2.7,0,0,1,.25,1.09,1.9,1.9,0,0,0,.82,1.94c.53.37.58.82-.17.91s-1,.51-1.5.71c-.29.12-.7.18-.67.62s.38.46.63.63a1.57,1.57,0,0,0,2.32-.24c.68-.82,1.29-.83,2.15,0a14.11,14.11,0,0,1,2.89,3.37,3.47,3.47,0,0,0,3.42,1c.18-.1.24-.24.12-.41-.79-1.13-1-2.65-2.45-3.36a1.18,1.18,0,0,1-.41-1.9c.38-.52.56-.94,0-1.57s-.4-1.35-.56-2a.27.27,0,0,1,.24-.37c1.36-.11.82-1,.56-1.7a1.38,1.38,0,0,1,1.06-2.06,11.8,11.8,0,0,1,6.38,1.33,8.57,8.57,0,0,1,2.47,1.2c.14.14.46.31.44.39-.34,1.23.59,1.11,1.28,1.25s1,.69,1.41,1.16a36.59,36.59,0,0,0,4.33,4.73c.36.28.73.83,1.18.64a.91.91,0,0,0,.52-1.37c-.8-1.77-1.49-3.58-2.28-5.35-.17-.38-.59-1-.86-1-1,0-.73-.64-.65-1.06.28-1.49-.79-2.4-1.61-3.34-.55-.63-1.49-.25-2.24-.54.21-.44.71-.08,1-.36-.88-.86-1.1-2-1.63-3.08a1.49,1.49,0,0,0-.63-.75c-3.05-1.54-6.17-2.64-9.57-2.29a6.62,6.62,0,0,0-3.12,1.11,2.37,2.37,0,0,0-1,1.75,34.61,34.61,0,0,0-.09,6.44c0,.28.27.71-.31.76s-1-.35-.9-.62c.25-.77-.44-1.16-.58-1.75a26.94,26.94,0,0,1,0-12.28c.3-1.33.75-2.61,1.1-3.92.61-2.25,1.91-3.64,4.42-3.49a23.05,23.05,0,0,1,4.3.26c0,.44-.37.6-.58.82-1,1.12-1,2.14-.17,3.57,1.56,2.62,3.78,4.69,5.79,6.92a76.36,76.36,0,0,0,6,6.48c.62.56,1.48.82,1.77,1.79.41,1.37,0,2.68.12,4,0,.2,0,.39-.06.6s0,.57.34.63.7-.05.72-.48c0-.6,0-1.21,0-1.81,0-.24-.06-.47-.06-.71,0-2.39-.08-2.48,2.06-1.33.51.27,1.12.24,1.62.66-.56.67-1.72.38-2.11,1.35a4.66,4.66,0,0,0,2.94-.73,2.33,2.33,0,0,1,2,0c2,.89,4.09,1.23,6.08,2,2.47,1,5,1.92,6.85,4,1.16,1.29,1.21,2,.24,3.33a3.84,3.84,0,0,0-.33.6,1.79,1.79,0,0,1-2.59,1c-1.57-.55-2.48-.05-2.85,1.52-.09.37.16.54.34.79.37.52.3.88-.36,1a14.86,14.86,0,0,1-8.6-.87,56.36,56.36,0,0,0-6.93-2,14.14,14.14,0,0,0-3-.34,18.53,18.53,0,0,0-3.28.29c-.62.07-.92.65-1.59.67a1.75,1.75,0,0,1-1.62-.55c-.54-.6-1.16-1.39-1.84-.18-.19.35-.58.17-.91,0a1.85,1.85,0,0,0-1.18-.47c0,.52.33.74.7,1,1,.68,1,1.12.09,1.67a.56.56,0,0,0-.27.82,1.35,1.35,0,0,1-.32,1.45,9.73,9.73,0,0,0-1.65,9.18,4.68,4.68,0,0,0,.52,1.11c.67,1,.41,1.73-.78,2-.28.08-.79-.11-.78.39s.45.54.82.64a5.26,5.26,0,0,1,1.94,2.47c0,.42-.34.37-.57.34a20.45,20.45,0,0,1-4.66-1c-.45-.18-.46-.43-.23-.77.36-.55.72-1.09,1.07-1.65.11-.18.38-.34.17-.6s-.46-.1-.67-.05c-.77.17-1.54.38-2.3.58-.47.12-.39.39-.09.64s.65.51,1,.77c.15.13.38.27.27.49s-.37.09-.53,0c-1.87-1-3.9-1.65-5.65-2.94A43.76,43.76,0,0,0,95.72,233c-.92-.42-1.89-.51-2.82-.84a16.31,16.31,0,0,0-2.55-.54,6.64,6.64,0,0,1-2.7-1.45,16.45,16.45,0,0,0-2.07-1.52c-1.42-.84-3-.88-4.48-1.28-.16,0-.36,0-.49-.07-1-.66-1.75-.71-1.8.74a.24.24,0,0,1-.27.23c-.28,0-.26-.29-.28-.48a7.6,7.6,0,0,1,.49-4.2c.7-1.58.7-1.69-.61-2.85a9.15,9.15,0,0,1-2.07-3,16.61,16.61,0,0,0-2-2.72c-.16-.2-.5-.45-.69-.42-1.36.24-1.44-1-1.86-1.69a2.25,2.25,0,0,0-1-1.08c0-.5.55-.19.74-.54-.54-.22-.56-.69-.68-1.19-.19-.79.23-1.7-.58-2.36a.21.21,0,0,1,0-.19c.56-1.57-.08-3.35.7-4.9a2.69,2.69,0,0,0-1.37-3.36c-.16-.07-.34-.09-.37-.37,1.71-.53,3.17.16,4.5,1.26a18.31,18.31,0,0,1,2.27,2c.82.94,1.4.82,2.11-.13a6.58,6.58,0,0,0,.86-2,.77.77,0,0,0-.59-1c-.88,0-.89-.53-1-1.07-.1-.35-.21-.63-.67-.62-1.68.05-2.3-.76-1.87-2.41,0-.19.17-.36.21-.55.1-.45.05-.82-.57-.82S73,193.33,73,192.46s-.82-1.38-1.41-1.85a3.36,3.36,0,0,1-1.34-3.5,2.47,2.47,0,0,0-.72-2.34,1.19,1.19,0,0,0-1.42-.43c-1.73.49-4-.82-4.83-2.55A27.42,27.42,0,0,1,61,174.56a2.09,2.09,0,0,1,.59-2A13.18,13.18,0,0,0,66,162.93a56.88,56.88,0,0,0-.59-9.39c-.06-.44-.11-.88-.17-1.31a1.8,1.8,0,0,1,.81-2c.77-.48.77-1.2,0-1.42-1.53-.43-1.46-1.65-1.68-2.66a24.37,24.37,0,0,1-.27-3.32.52.52,0,0,1,.43-.58c.34-.07.56.12.78.38a25.14,25.14,0,0,1,2.84,3.83,14.24,14.24,0,0,0,3.27,3.73,1.54,1.54,0,0,1,.57,1.78c-1.06,4.22-1.38,8.61-2.25,12.88a2.22,2.22,0,0,0,1.81,2.55c1.54.46,3.14.53,4.67,1,.77.25,1.18-.14,1.31-.92.61-3.37,1.1-6.77,1.9-10.08a64,64,0,0,1,2.5-9c.11-.27.14-.67.47-.69s.41.4.54.66a5,5,0,0,1,.31.66c.62,1.58.62,1.58-.72,2.5-1.87,1.28-1.56,4.82.57,5.85a3.9,3.9,0,0,0,4.12-.14,1.3,1.3,0,0,1,2,.56A2.38,2.38,0,0,0,90.39,159c.54.22.57.85,1,1.19s.51.61.85.39,0-.52-.12-.78c-.43-1,.71-.75,1-1.25s.52.27.69.56c.32.56.39,1.36,1.33,1.3.23,0,.47.16.58-.16a.46.46,0,0,0-.22-.61c-.66-.36-.67-1.1-.93-1.66-.1-.22.47-.62-.05-1-.2-.14-.34-.41-.6-.35s-.18.39-.21.6.11.53-.26.53-.29-.27-.29-.46c.05-1.62-1.14-2.58-2.1-3.62a14.42,14.42,0,0,1-2.7-5.06c0-.07-.06-.18,0-.2,1.07-.75-.22-1.54-.11-2.3a19.37,19.37,0,0,1,1.19-4.09c.39-1,.86-2,1.26-3,.31-.8,0-1.32-.84-1.51a4.39,4.39,0,0,0-3.18.49c-.32.18-.57.7-1,.4s.09-.57.12-.88c.23-2.82,1.29-5.4,2-8.07,0-.08.11-.14.16-.2a.37.37,0,0,1,.34.36,25.65,25.65,0,0,0,2.58,8c1.63,3.44,3.65,6.66,7.38,8.35a8.61,8.61,0,0,0,7.3.19,8.35,8.35,0,0,0,5.07-7.11c.27-2.11-.54-4.13-1.41-6.09a58.29,58.29,0,0,1-2.29-6.24,9.47,9.47,0,0,0-1.7-2.94,13.42,13.42,0,0,0-3.08-3.34,4.84,4.84,0,0,0-4.67-.25c-.87.37-1.71.82-2.55,1.26a3,3,0,0,0-.76.61c-.55.6-.48,1.11.27,1.55a43.5,43.5,0,0,1,6.67,4.72,21.82,21.82,0,0,1,5.78,6.72c1.51,3,.57,6.74-1.47,8.06a6.85,6.85,0,0,1-8.49-.93,16.59,16.59,0,0,1-4.48-8.13c0-.1-.1-.26-.06-.29,1.08-.9,1-2.62,2.37-3.34A4.2,4.2,0,0,0,96.4,129c.47-.72,0-1.29-.19-1.91-.1-.36-.39-.14-.54,0a13.11,13.11,0,0,1-3.38,2.32,1.17,1.17,0,0,0-.54,1.38,1.3,1.3,0,0,1,0,1.09c-.09,0-.22-.08-.24-.14-.69-2.14-1.32-4.39-.88-6.49s.26-4.46,1.72-6.34a14.67,14.67,0,0,1,3.29-3.15c.35-.24.78-.36.74-.91a.41.41,0,0,1,.15-.35c1.52-.68,2.79-2,4.66-1.77a10.35,10.35,0,0,1,2.4.33,10,10,0,0,1,4.54,3.87,31.59,31.59,0,0,1,1.93,2.55c.27.47.51,1,0,1.49-1.29,1.08-.74,2.6-.71,4a.35.35,0,0,0,.6.25c.5-.39,1.18-.44,1.68-.8.77-.56,1-.16,1,.57a57.5,57.5,0,0,1,.1,10.16A52,52,0,0,1,110,148.55a10.36,10.36,0,0,1-.47,1.08.67.67,0,0,1-.6.46,2.4,2.4,0,0,1-2-1.05.76.76,0,0,1,.11-.93c.32-.41.57.08.94.11-.07-.36-.14-.67-.2-1a6.55,6.55,0,0,0-4,3.07,1.72,1.72,0,0,0-.14,2,5.29,5.29,0,0,1,.36,1.38c.06.29,0,.6-.25.69s-.59-.13-.72-.44-.18-.57-.3-1c-.53.49-.47,1.29-1.05,1.65a.54.54,0,0,0,.05.46c1,.61.5,1.41.34,2.08a13.31,13.31,0,0,0,0,3.51c0,.66.34.91,1,.84s1.57-.32,2.3.35c.26.25.47-.08.68-.22,1.29-.83,2.53-1.68,4.3-1.24a1.59,1.59,0,0,0,2-.79c.08-.19.18-.19.39-.11,1.79.72,1.79.71,2.1-1.21a3.22,3.22,0,0,1,.21-.51c-.2-.28-.66-.32-.66-.76a2.31,2.31,0,0,1-1.36,1.22,2.16,2.16,0,0,1,1.34-1.25c-.59-.34-1.18.18-1.78-.11-.17-.08-.44-.07-.39-.36s.24-.23.4-.2c.73.12,1.45-.28,2.17.11-.89-.61-.58-1.52-.68-2.32,0-.29.24-.3.43-.24,1.3.38,1.79-.58,2.32-1.37.67-1,1.21-2.09,1.87-3.11a2.43,2.43,0,0,0,.32-1.43c0-1.11.79-1.84,1-2.83.09-.37.47-.26.76-.08a16.25,16.25,0,0,0,4.15,1.4,1,1,0,0,0,.59.07c1.76-.51,3.45.14,5.16.57.36.09.89.05.89.64s-.34.72-.8.87a11.58,11.58,0,0,0-3.41,1.45c-.22.16-.5.25-.46.56s.41.3.66.32c1.34.09,2.68.17,4,.24.84,0,1.31-.19,1.43-1.17.28-2.25.35-2.25,2.53-1.37a69.46,69.46,0,0,1,9.47,4.69,4.87,4.87,0,0,0,2.2.79c.62.06.75-.21.48-.69a3.75,3.75,0,0,1,.17-3.65c.26-.56.69-.71,1.43-.71,1.44,0,2.6,1,4.1,1.14-.75-1.24-1.37-2.38-2.73-3-1.75-.79-3.43-1.75-5.15-2.6-.59-.29-.64-.58-.21-1a23,23,0,0,0,3.3-3.6c.3-.44.51-.07.68.16.5.7,1,1.41,1.48,2.13.23.34.44.64.88.34s.26-.55,0-.84c0,0-.06-.05-.06-.08,0-1.12-.85-1.8-1.49-2.59a1.15,1.15,0,0,1-.3-.85c.35-1.67-.73-2.92-1.42-4.29-.07-.15-.18-.33-.15-.47.35-1.64.37-3.48,2-4.44.87-.52.78-1,.19-1.78-1.06-1.36-2-2.78-3.11-4.15a6.54,6.54,0,0,1-1.29-3.3,21.87,21.87,0,0,0-2.71-7.4c-.51-1-.29-2-.86-2.93l3,2c.32.22.64.68,1,.28a1.19,1.19,0,0,0,.11-1.24,4.69,4.69,0,0,0-.39-.73c1.49-.23,1.5-.29.68-2.71l.6.89c.38.05.11-.54.58-.46,0,.5.06,1,.07,1.55a.57.57,0,0,0,.63.64c.42,0,.61-.16.62-.57s0-.88,0-1.31c0-.64.55-.5,1-.54.58-.06.55.31.52.69.26-.07.26-.33.41-.44,1-.74.62-1.1-.4-1.34-.12,0-.32-.1-.34-.18-.7-2.37-3.19-2.9-4.59-4.57-.54-.65-1.65-1-1.4-2.05.16-.7,2.38-1.42,3.2-.93,1.46.86,3.13.94,4.83,1.91a4.27,4.27,0,0,1-.08-3.12,12.1,12.1,0,0,1,2.3,2.53,9.37,9.37,0,0,0,1.59,1.73c.19.19.48.36.73.18s0-.49,0-.74c-.15-.67-.69-1.17-1-2a2.79,2.79,0,0,1,1.1,1.13c.29.43.56.87.89,1.27,1.35,1.64,1.43,2,.25,3.56a37,37,0,0,1-4.91,5.18c-2,1.76-4.3,3.08-6.11,5-.42.45-.93.74-.52,1.58a2,2,0,0,0,1.86,1.2,11,11,0,0,0,5.18-1.23,6.66,6.66,0,0,0,3.51-3.93c.65-1.67,1-3.59,2.64-4.72.25-.18-.14-.58.15-.92a10.78,10.78,0,0,1,1.7-1.61l.21-.18V95.52c0-.2-.07-.39-.1-.59-.14-.87-.78-1.62-.57-2.61C161.47,91.63,161.64,91.26,162,91.19ZM87.68,209c.42.54,1.12.84,1.57,1.41a5.19,5.19,0,0,1-3.92-1.69C86.2,208.53,86.88,208,87.68,209Zm1.81-27.77a.93.93,0,0,1-.88.33c-.23-.05-.22-.32-.19-.51a2.33,2.33,0,0,1,.48-1.46c.31.38,0,.95.57,1.15C89.69,180.8,89.63,181.06,89.49,181.22ZM95,188.57c-.43.21-.89,1-1.28.5s.46-.77.81-1.1.62-.44.87-.09S95.15,188.32,95,188.57Zm36.18,60.54c-.29.6-.44,1.21-1.17,1.43a1.09,1.09,0,0,0-.8,1.21c0,1.14-1,2-.61,3.32-1-.82-1.42-1.91-2.48-2.49a1.17,1.17,0,0,1,.13-1.17c.47-.54.88-1.13,1.33-1.68.22-.28.37-.55.1-.9s-.35-.52-.64-.44a.79.79,0,0,0-.5.78c.2,1-.43,1.16-1.06,1.49s-1.2,1.19-2.07,1.44c-.66.19-1,0-1-.67-.08-1.79,0-3.49,1.36-4.81a.74.74,0,0,1,1-.17c1.48.57,3,.93,4.27-.23.46-.41.91-.32,1.15.37a2.2,2.2,0,0,0,.39.83C131,247.9,131.61,248.23,131.19,249.11Zm-1-5c2,.07,2.89.6,3.75,2.22C131.76,245.67,131.27,245.38,130.19,244.07Zm4.51,8c-.52.39-.69-.25-1-.39s-.5-.25-.22-.5a.71.71,0,0,1,1,.09A.63.63,0,0,1,134.7,252.11Zm9.44-12.83a16.32,16.32,0,0,1-1,7.32c-.16.49-.59.87-.5,1.5,0,.28-.37.58-.51.41-.56-.69-1-.14-1.52-.06a2.93,2.93,0,0,1-2.71-.81,4,4,0,0,0-1.1-.71c-.25-.26-.31-.45-.24-.65s.29-.24.5-.19c.5.12.52-.24.71-.57A5.13,5.13,0,0,0,138,242a1.27,1.27,0,0,1,.75-1.46c1.44-.64,2.83-1.37,4.26-2C143.65,238.24,144.05,238.56,144.14,239.28Zm-23.78-2a10.43,10.43,0,0,0,.21-6.52,1.23,1.23,0,0,1,1.74-1.58c2.08.9,4.22,1.56,6.35,2.32a18.7,18.7,0,0,0,2.57.57c.22.05.52.11.62-.16s-.13-.46-.35-.56a1,1,0,0,1-.7-1.12c0-.32-.21-.47-.46-.61a22.92,22.92,0,0,0-4.35-2,2.87,2.87,0,0,1-.65-.27c-.22-.15-.53-.3-.5-.61s.32-.32.53-.39c.52-.19,1.06-.35,1.69-.55.07.38-.43.67,0,.95s.39-.31.62-.4a7.68,7.68,0,0,1,4.26-.84,44.31,44.31,0,0,1,4.64,1.16,18.44,18.44,0,0,0,5.79.79c.33,0,.85-.17.93.35s-.45.39-.74.52c-2.38,1-4.68,2.19-7,3.41-1.33.7-2.76,1.25-3.43,2.75-.08.19-.29.24-.5.26a6,6,0,0,0-3,1.47,1.54,1.54,0,0,0-.69,1.25,1.45,1.45,0,0,1-.55,1,6,6,0,0,1-4.6,1.87A4.57,4.57,0,0,1,120.2,239C119.83,238.64,120.2,237.83,120.36,237.28ZM90.73,243c-.21.32-.49.45-.57.27-.3-.73.27-1.21.53-1.77.1-.2.34-.28.48,0C91.56,242.16,90.84,242.54,90.73,243Zm10-3.84c.34.28.23.52-.08.71A1.17,1.17,0,0,1,98.9,239c-.07-.35-.16-.7-.27-1.13A5.33,5.33,0,0,1,100.76,239.11Zm-18-8c.15-.11.31,0,.44.14s.27.36.07.51-.31,0-.42-.16S82.51,231.3,82.73,231.13Zm-.86,2.47c.56,0,.93.28.87-.52,0-.15.23-.3.41-.52.34.7,0,1.44.42,2,.16-.68.31-1.36.46-2,.08-.4.28-.57.71-.37a2.06,2.06,0,0,0,.89.07c.62,0,1.45-.32,1.25.93-.06.4.36.48.74.47a1.76,1.76,0,0,1,1.55.57c.62.75,1.59-.12,2.12.47a2,2,0,0,0,2.11.62c.29,0,.51-.17.52.31a.24.24,0,0,0,.42.18c.38-.37.72-.13,1.1,0s.72.41.72.9-.58.17-.73.57a2.08,2.08,0,0,0,1.59.55.72.72,0,0,1,.89.51c.08.41-.31.54-.62.65a14.34,14.34,0,0,1-8,.28c-1.46-.3-2.91-.67-4.37-1a1.93,1.93,0,0,1-1.09-.54l3.23.1c.68,0,1.66-1.24,1.39-1.85-.14-.31-.47-.23-.73-.26a15.77,15.77,0,0,1-3.4-.44c-.4-.14-.68-.29-.74-.72-.07.07-.14.21-.19.2a11.78,11.78,0,0,1-4.25-1.67C80.19,232.89,81,233.55,81.87,233.6Zm-4.58-1.7c-1.91.33-2.09-1.45-3-2.2A5.69,5.69,0,0,1,77.29,231.9Zm-3-.07a6.91,6.91,0,0,1,1.25,3.87c-.51-1.26-1-2.51-1.54-3.77ZM65.91,190a.34.34,0,0,1,.59.09c.2.37.57.72.31,1.16-.26.17-.5.2-.64-.08S65.52,190.48,65.91,190Zm-9.62-51.35a6.86,6.86,0,0,1,1.6-2.79.73.73,0,0,1,1-.17,1.16,1.16,0,0,1,.75,1c.22,2-1,3-3,2.53C56.29,139.18,56.23,139,56.29,138.68Zm-5.8,9.4c-.3.38-.75-.24-1.14-.38a2.57,2.57,0,0,1-.57-.38c-.18-.27-.61-.56-.2-.76s1.07-.49,1.47.08C50.33,147,50.85,147.64,50.49,148.08Zm2.95,22.3c-2.11-2.5-2.31-5.36-1.8-8.28.25-1.44.75-2.81.44-4.33a2.09,2.09,0,0,1,.1-1,4.46,4.46,0,0,0,.23-3.2c-.12-.27-.07-.7.21-.8s.49.31.6.56c.86,1.85,2.05,3.53,2.65,5.55.43,1.46,1.29,2.84,1.73,4.36a31.83,31.83,0,0,1,1.11,6.61c0,.6-.17.81-.68,1a6.82,6.82,0,0,1-3.67.06A1.43,1.43,0,0,1,53.44,170.38Zm7.92,14.11c.12.73.21,1.47.32,2.21,0,.38.11.75-.25,1s-.59-.18-.87-.31a3.16,3.16,0,0,1-.64-.31c-.47-.37-.81-.8-.4-1.38a1.64,1.64,0,0,0,.22-1.34c-.9.47-.9.47-1-.64,0-.7-.13-1.4-.12-2.11,0-.86-1-1.71-2.19-2.06-.38-.11-1,.16-1.11-.45s-.5-1.51,0-2.26c.09-.15.94-.27.11-.67.24-.31.49-.54.9-.19.24.2.44.49.7.59s1,.43,1.18,0a1.2,1.2,0,0,0-.38-1.56c-.34-.24-.87-.45-1.14-.24-.81.61-.86-.2-1.31-.59,1.26-.33,2.51,0,3.61-.56.47-.24.58.42.65.81C60.21,177.8,60.79,181.14,61.36,184.49Zm-.47-34.94a.9.9,0,0,1-1.44,0,22.15,22.15,0,0,1-2.31-5.05c-.15-.51,0-1,.53-1.1.38-.1.77-.16.69.48-.12,1,.65,1.85.9,2.8.07.25.29.34.54.41A1.74,1.74,0,0,1,60.89,149.55Zm12.24-38.06a6.53,6.53,0,0,1,1.53-4,15.64,15.64,0,0,1,4.47-4.83c-.15.1-.19.26,0,.35.43.17.9.26,1.16-.28h-.16l-.67-.06c.85-.28,1.16-1.07,1.56-1.76a2.31,2.31,0,0,1,1.36-1.17c1.09-.33,1.21-.27,1.44.86l.07.19c.49,1.72.42,1.82-1.37,2.12.58,0,1,.48,1.45.74s.07.61-.14.82c-1.12,1.1-2.28,2.14-3.38,3.26a37.47,37.47,0,0,1-5.68,4.6c-.53.37-1.13,1-1.7.78S73.15,112.07,73.13,111.49Zm-8.3,14.35c-.25.08-.52.23-.74,0s0-.54.1-.74c.93-1.46,1.69-3,2.69-4.44a48.63,48.63,0,0,1,3.44-4c.29-.34.68-.49,1.05-.13s.79.9.44,1.44c-.46.71-.72,1.56-1.21,2.21-1.21,1.61-2.58,3.1-3.92,4.67A7,7,0,0,1,64.83,125.84Zm19.73-5c-.57.54-1.24,1-1.83,1.47-.23.19-.57.4-.36.82s.6.31,1,.23a33.43,33.43,0,0,1-1.74,4.37c-1.94,5-4.14,10-6.51,14.8-.81,1.64-2,2-3.67,1-.18-.1-.34-.3-.54-.16s-.13.36-.1.56a2.67,2.67,0,0,0,.48,1.23c.19.29.37.71.07.92s-.53-.23-.75-.46c-3.84-4.11-3.23-11.09-.68-14.87A25.52,25.52,0,0,1,76.55,124c1.68-1.16,3.35-2.35,5-3.61a5.82,5.82,0,0,1,2.5-1.1c.25,0,.61,0,.66-.31.11-.8.74-.91,1.64-1.18A7.85,7.85,0,0,1,84.56,120.87Zm20.89,36.46c.29-.44.58-.66,1-.59C106.24,157.32,106.24,157.32,105.45,157.33Zm6.75,1.38a.56.56,0,0,1-.47.58c-.41.12-.81.68-1.24.24s.21-.36.39-.45.39,0,.57-.06A5.23,5.23,0,0,0,112.2,158.71Zm27.53-89.57c1.89,0,3.35,1,5,3.07.48.83,2,1.79,2.78,3.37.22.45.76.58,1.14.87s.52.52.36.87-.52.17-.79.08a14.9,14.9,0,0,1-8.56-6.26,6,6,0,0,1-.58-1.63C138.89,69,139.42,69.13,139.73,69.14Zm-10.35,9.64c.94.06,1.8-.26,2.76-.21a4.73,4.73,0,0,1,3.51,2,36.92,36.92,0,0,1,3.27,4.15,3.49,3.49,0,0,1-2.41-.32,13.42,13.42,0,0,0-5.4-1.23,1.39,1.39,0,0,1-1.34-.8c-.4-.8-.8-1.6-1.14-2.42S128.56,78.72,129.38,78.78Zm5.51,31.9a1.81,1.81,0,0,1-1.4-1.77c.46.58,1.17.74,1.72,1.13.25.18.48.34.3.65S135.11,110.76,134.89,110.68Zm.08,3.92a1.38,1.38,0,0,1-1.6,1.1c-.29-.06-.49-.26-.38-.49.43-1,.19-2,.37-3.25C134.18,112.83,135.21,113.34,135,114.6Zm-.48-21.41c-.59.41-1.24.73-1.83,1.13s-1.11.23-1.34-.45c-.29-.9-.57-1.87.36-2.55a.16.16,0,0,0,.07-.07c1-2.11,3-1.08,4.64-1.12.35,0,.45.24.32.56-.26.66-.05,1.08.67,1.31a1.11,1.11,0,0,1,.81,1.24,19.64,19.64,0,0,0,.31,2.59c-.48,0-.75-.1-.81-.65a3.63,3.63,0,0,0-.35-1.07C136.52,92.24,136.05,92.1,134.49,93.19Zm-6.28,4.13A3.92,3.92,0,0,1,132,96.18a2.18,2.18,0,0,0-1.33,1.74c-.11.45.07.61.5.64a4.45,4.45,0,0,0,3.08-.82c.22-.17.51-.47.76-.09s-.16.49-.35.6a12.63,12.63,0,0,0-2.46,2.21c-.19.19-.37.48-.73.39a.32.32,0,0,1-.16-.23c0-.37.26-.5.55-.61.14-.05.33-.07.37-.34-1.14-.2-2.21-.43-2.61-1.86-.16-.59-.69-.22-1,.06s-.61,1-1,.52S127.9,97.65,128.21,97.32Zm-5-5.66c.25-.18.69-.72,1-.14s1.14,1.46.46,2c-1.48,1.21-1.74,3-2.43,4.64s-.5,1.45-2.14,1.28a37.11,37.11,0,0,0-4.91-.66,1.93,1.93,0,0,1-.46-.16c1.43-1.32,2.73-2.63,4.15-3.8S121.75,92.68,123.23,91.66Zm-1.52,19.15c-.61.18-1.35.43-2.11.64a.45.45,0,0,1-.48-.31c-.07-.21.11-.27.25-.35.46-.3.93-.59,1.38-.91s.74.45,1.2.33A.6.6,0,0,1,121.71,110.81ZM110.46,74.16c.42-.3-.09-1.23.66-1.21a28.25,28.25,0,0,1,3.28.33.78.78,0,0,1,.65.71c0,.42-.46.39-.77.42-1.13.08-2.25.14-3.38.2a2.83,2.83,0,0,1-.63-.14C110.37,74.31,110.39,74.2,110.46,74.16Zm-2.71,8.59a6.87,6.87,0,0,0,2.36-1.17,1.53,1.53,0,0,1,.62-.29,37.9,37.9,0,0,1,7.23-.51c.24,0,.48,0,.57.32s0,.33-.22.48a1.22,1.22,0,0,1-.4.08,21.89,21.89,0,0,0-9.85,1.9c-.28.11-.68.36-.85-.12S107.42,82.81,107.75,82.75ZM89.4,90.67c-.27.08-.57.34-.82,0s0-.52.15-.74c.48-.82,1-1.62,1.35-2.22a14.17,14.17,0,0,1,7.66-2.89c2-.2,4.06-.15,6.05-.54.5-.1.92-.36,1.41-.43.3,0,.66-.1.79.28s-.23.41-.46.52A120.59,120.59,0,0,1,89.4,90.67Zm15.31-1.38c4-2.43,7.78-5.15,13.09-4.67C117.13,85.18,105.34,89.41,104.71,89.29Zm5.34,15.37a3.94,3.94,0,0,1-.9.1l-.49,0-.77-.06-.29,0H107c.23-1.08,1.2-1.4,2-1.68,2.29-.76,4.77-.69,7.18-.87a.65.65,0,0,1,.45.19c.13.14,0,.3-.09.44-1,1.41-2,2.55-4,2.09C111.67,104.64,110.86,105.27,110.05,104.66Zm1.29,16.44a.32.32,0,0,1-.45-.07.34.34,0,0,1-.07-.51c.12-.13.23,0,.32.09S111.4,120.91,111.34,121.1Zm25.94,19c-.26.26-.64.12-.95.21s-.76.21-.87-.2.41-.13.57-.29.34-.64.81-.58c.22,0,.49-.17.63.14A.59.59,0,0,1,137.28,140.09Zm3.59-8.44A43.06,43.06,0,0,0,136,138a.35.35,0,0,1-.48.19.75.75,0,0,1-.52-.8,29.45,29.45,0,0,1,.36-4.61,3.36,3.36,0,0,0-1.21-3.1c-.35-.34-.6-.42-.74.18-.42,1.78-.9,3.54-1.31,5.32-.12.51-.27.82-.86.56-.36-.15-.59-.07-.69.3-.18.73-.69.78-1.32.62a7.24,7.24,0,0,0-2.41-.1,1.47,1.47,0,0,0-1.13.68c-.24.32-.27.56.18.79.77.39,1.36,1,2.37,1,.61,0,.76,1,.74,1.54-.08,2.31-1,3.08-3.42,3.08-1.47,0-2.93.1-4.4.14-.27,0-.62.24-.81-.15a1.11,1.11,0,0,1,.12-.87,1.53,1.53,0,0,1,.31-.37c.38-.43,1.3-.78,0-1.41-.3-.15-.14-.56-.13-.85a24.56,24.56,0,0,0-1.24-9.37,78.53,78.53,0,0,0-4.1-9,36.78,36.78,0,0,0-4-7c-.45-.55-.25-.76.35-.82,1.3-.13,2.59.25,3.9.2,2.57-.1,5.16,0,7.74-.1a3.64,3.64,0,0,1,.8.06c.34.06.82-.06.87.49a1,1,0,0,1-.4,1.11c-.8.52-.1,1.44-.33,2.22.55,0,.68-.4,1-.46.4.53-.34.81-.18,1.28.86,0,1.22.71,1.62,1.33a1.75,1.75,0,0,0,2,.91,8.07,8.07,0,0,0,2.85-.91,1.52,1.52,0,0,1,2.24.33c2.16,3.11,4.67,5.94,7,8.93C141.48,130.22,141.58,130.83,140.87,131.65Zm4.63-38.34c-.67.91-3,.65-3.53-.4,0,0,0,0,.07-.06.36-.27.91.65,1.08,0,.11-.39-.61-.51-.92-.8s-.59-.45-.86-.74a13.22,13.22,0,0,1,3.92,1.44C145.47,92.84,145.7,93,145.5,93.31Zm14.28,7.14c-.52.4-1-.45-1.43-.86-1.23-1.27-2.48-2.53-3.58-3.91a29.63,29.63,0,0,0-10.23-7.94c-1.1-.56-2.18-1.17-3.26-1.77-.23-.12-.58-.22-.49-.56s.4-.1.61-.14c2-.38,3.7.4,5.41,1.69,1.37,1,2.9,1.82,3.91,3.3a.55.55,0,0,0,.8.18c.32-.2.23-.52.1-.81-.44-.93-.89-1.86-1.34-2.79a2.12,2.12,0,0,1-.37-1.31,5.28,5.28,0,0,1,1.38,1.2c.42.41.8.87,1.24,1.25s.83.75,1.25.5-.05-.72-.17-1.08-.17-.69.09-.84.53.21.69.45a18,18,0,0,1,2.24,3.26,14.65,14.65,0,0,0-1.66-.85c-1-.36-1.49.14-1.29,1.13a7.48,7.48,0,0,0,2,3.89,27.86,27.86,0,0,1,3.62,4.41C159.63,99.36,160.27,100.08,159.78,100.45Zm-32.21,127c.33.32.56.36.83.11A.58.58,0,0,0,127.57,227.41ZM89.82,237.93c.15-.07.12-.2,0-.32s-.24-.18-.35-.06a.31.31,0,0,0,0,.27A.24.24,0,0,0,89.82,237.93ZM53,161.31a1,1,0,0,0-.19,1.09.35.35,0,0,0,.31.16c.43-.12.37-.55.44-.89a.63.63,0,0,0-.16-.7Zm74.61,66.1c.33.32.56.36.83.11A.58.58,0,0,0,127.57,227.41Zm-37.72,10.2c-.11-.11-.24-.18-.35-.06a.31.31,0,0,0,0,.27.24.24,0,0,0,.34.11C90,237.86,89.94,237.73,89.85,237.61ZM53.36,161l-.4.34a1,1,0,0,0-.19,1.09.35.35,0,0,0,.31.16c.43-.12.37-.55.44-.89A.63.63,0,0,0,53.36,161Zm74.21,66.44c.33.32.56.36.83.11A.58.58,0,0,0,127.57,227.41Zm-37.72,10.2c-.11-.11-.24-.18-.35-.06a.31.31,0,0,0,0,.27.24.24,0,0,0,.34.11C90,237.86,89.94,237.73,89.85,237.61ZM53.36,161l-.4.34a1,1,0,0,0-.19,1.09.35.35,0,0,0,.31.16c.43-.12.37-.55.44-.89A.63.63,0,0,0,53.36,161Zm74.21,66.44c.33.32.56.36.83.11A.58.58,0,0,0,127.57,227.41Zm-37.72,10.2c-.11-.11-.24-.18-.35-.06a.31.31,0,0,0,0,.27.24.24,0,0,0,.34.11C90,237.86,89.94,237.73,89.85,237.61ZM53.36,161l-.4.34a1,1,0,0,0-.19,1.09.35.35,0,0,0,.31.16c.43-.12.37-.55.44-.89A.63.63,0,0,0,53.36,161Zm74.21,66.44c.33.32.56.36.83.11A.58.58,0,0,0,127.57,227.41Zm-37.72,10.2c-.11-.11-.24-.18-.35-.06a.31.31,0,0,0,0,.27.24.24,0,0,0,.34.11C90,237.86,89.94,237.73,89.85,237.61ZM53.36,161l-.4.34a1,1,0,0,0-.19,1.09.35.35,0,0,0,.31.16c.43-.12.37-.55.44-.89A.63.63,0,0,0,53.36,161Zm74.21,66.44c.33.32.56.36.83.11A.58.58,0,0,0,127.57,227.41Zm-37.72,10.2c-.11-.11-.24-.18-.35-.06a.31.31,0,0,0,0,.27.24.24,0,0,0,.34.11C90,237.86,89.94,237.73,89.85,237.61ZM53.36,161l-.4.34a1,1,0,0,0-.19,1.09.35.35,0,0,0,.31.16c.43-.12.37-.55.44-.89A.63.63,0,0,0,53.36,161Zm107.22,72c-1.31-.15-2.59.09-3.9-.08a1.1,1.1,0,0,0-1.15.61c-.23.49.38.53.65.74a3.07,3.07,0,0,0,2,.4c1.27.05,2.55.09,3.82.11V233A13.67,13.67,0,0,1,160.58,232.93Zm-33-5.52c.33.32.56.36.83.11A.58.58,0,0,0,127.57,227.41Zm-37.72,10.2c-.11-.11-.24-.18-.35-.06a.31.31,0,0,0,0,.27.24.24,0,0,0,.34.11C90,237.86,89.94,237.73,89.85,237.61ZM53.36,161l-.4.34a1,1,0,0,0-.19,1.09.35.35,0,0,0,.31.16c.43-.12.37-.55.44-.89A.63.63,0,0,0,53.36,161Zm36.49,76.64c-.11-.11-.24-.18-.35-.06a.31.31,0,0,0,0,.27.24.24,0,0,0,.34.11C90,237.86,89.94,237.73,89.85,237.61ZM53.36,161l-.4.34a1,1,0,0,0-.19,1.09.35.35,0,0,0,.31.16c.43-.12.37-.55.44-.89A.63.63,0,0,0,53.36,161Zm36.49,76.64c-.11-.11-.24-.18-.35-.06a.31.31,0,0,0,0,.27.24.24,0,0,0,.34.11C90,237.86,89.94,237.73,89.85,237.61ZM53.36,161l-.4.34a1,1,0,0,0-.19,1.09.35.35,0,0,0,.31.16c.43-.12.37-.55.44-.89A.63.63,0,0,0,53.36,161Zm36.49,76.64c-.11-.11-.24-.18-.35-.06a.31.31,0,0,0,0,.27.24.24,0,0,0,.34.11C90,237.86,89.94,237.73,89.85,237.61ZM53.36,161l-.4.34a1,1,0,0,0-.19,1.09.35.35,0,0,0,.31.16c.43-.12.37-.55.44-.89A.63.63,0,0,0,53.36,161Zm36.49,76.64c-.11-.11-.24-.18-.35-.06a.31.31,0,0,0,0,.27.24.24,0,0,0,.34.11C90,237.86,89.94,237.73,89.85,237.61ZM53.36,161l-.4.34a1,1,0,0,0-.19,1.09.35.35,0,0,0,.31.16c.43-.12.37-.55.44-.89A.63.63,0,0,0,53.36,161Zm36.49,76.64c-.11-.11-.24-.18-.35-.06a.31.31,0,0,0,0,.27.24.24,0,0,0,.34.11C90,237.86,89.94,237.73,89.85,237.61ZM53.36,161l-.4.34a1,1,0,0,0-.19,1.09.35.35,0,0,0,.31.16c.43-.12.37-.55.44-.89A.63.63,0,0,0,53.36,161Zm36.49,76.64c-.11-.11-.24-.18-.35-.06a.31.31,0,0,0,0,.27.24.24,0,0,0,.34.11C90,237.86,89.94,237.73,89.85,237.61ZM53.36,161l-.4.34a1,1,0,0,0-.19,1.09.35.35,0,0,0,.31.16c.43-.12.37-.55.44-.89A.63.63,0,0,0,53.36,161Zm36.49,76.64c-.11-.11-.24-.18-.35-.06a.31.31,0,0,0,0,.27.24.24,0,0,0,.34.11C90,237.86,89.94,237.73,89.85,237.61ZM53.36,161l-.4.34a1,1,0,0,0-.19,1.09.35.35,0,0,0,.31.16c.43-.12.37-.55.44-.89A.63.63,0,0,0,53.36,161Zm36.49,76.64c-.11-.11-.24-.18-.35-.06a.31.31,0,0,0,0,.27.24.24,0,0,0,.34.11C90,237.86,89.94,237.73,89.85,237.61ZM53.36,161l-.4.34a1,1,0,0,0-.19,1.09.35.35,0,0,0,.31.16c.43-.12.37-.55.44-.89A.63.63,0,0,0,53.36,161Zm36.49,76.64c-.11-.11-.24-.18-.35-.06a.31.31,0,0,0,0,.27.24.24,0,0,0,.34.11C90,237.86,89.94,237.73,89.85,237.61ZM53.36,161l-.4.34a1,1,0,0,0-.19,1.09.35.35,0,0,0,.31.16c.43-.12.37-.55.44-.89A.63.63,0,0,0,53.36,161Zm36.49,76.64c-.11-.11-.24-.18-.35-.06a.31.31,0,0,0,0,.27.24.24,0,0,0,.34.11C90,237.86,89.94,237.73,89.85,237.61ZM53.36,161l-.4.34a1,1,0,0,0-.19,1.09.35.35,0,0,0,.31.16c.43-.12.37-.55.44-.89A.63.63,0,0,0,53.36,161Zm36.49,76.64c-.11-.11-.24-.18-.35-.06a.31.31,0,0,0,0,.27.24.24,0,0,0,.34.11C90,237.86,89.94,237.73,89.85,237.61ZM53.36,161l-.4.34a1,1,0,0,0-.19,1.09.35.35,0,0,0,.31.16c.43-.12.37-.55.44-.89A.63.63,0,0,0,53.36,161Zm36.49,76.64c-.11-.11-.24-.18-.35-.06a.31.31,0,0,0,0,.27.24.24,0,0,0,.34.11C90,237.86,89.94,237.73,89.85,237.61ZM53.36,161l-.4.34a1,1,0,0,0-.19,1.09.35.35,0,0,0,.31.16c.43-.12.37-.55.44-.89A.63.63,0,0,0,53.36,161Zm36.49,76.64c-.11-.11-.24-.18-.35-.06a.31.31,0,0,0,0,.27.24.24,0,0,0,.34.11C90,237.86,89.94,237.73,89.85,237.61ZM53.36,161l-.4.34a1,1,0,0,0-.19,1.09.35.35,0,0,0,.31.16c.43-.12.37-.55.44-.89A.63.63,0,0,0,53.36,161Zm36.49,76.64c-.11-.11-.24-.18-.35-.06a.31.31,0,0,0,0,.27.24.24,0,0,0,.34.11C90,237.86,89.94,237.73,89.85,237.61ZM53.36,161l-.4.34a1,1,0,0,0-.19,1.09.35.35,0,0,0,.31.16c.43-.12.37-.55.44-.89A.63.63,0,0,0,53.36,161Zm36.49,76.64c-.11-.11-.24-.18-.35-.06a.31.31,0,0,0,0,.27.24.24,0,0,0,.34.11C90,237.86,89.94,237.73,89.85,237.61ZM53.36,161l-.4.34a1,1,0,0,0-.19,1.09.35.35,0,0,0,.31.16c.43-.12.37-.55.44-.89A.63.63,0,0,0,53.36,161Zm36.49,76.64c-.11-.11-.24-.18-.35-.06a.31.31,0,0,0,0,.27.24.24,0,0,0,.34.11C90,237.86,89.94,237.73,89.85,237.61ZM53.36,161l-.4.34a1,1,0,0,0-.19,1.09.35.35,0,0,0,.31.16c.43-.12.37-.55.44-.89A.63.63,0,0,0,53.36,161Zm0,0-.4.34a1,1,0,0,0-.19,1.09.35.35,0,0,0,.31.16c.43-.12.37-.55.44-.89A.63.63,0,0,0,53.36,161Zm0,0-.4.34a1,1,0,0,0-.19,1.09.35.35,0,0,0,.31.16c.43-.12.37-.55.44-.89A.63.63,0,0,0,53.36,161Zm0,0-.4.34a1,1,0,0,0-.19,1.09.35.35,0,0,0,.31.16c.43-.12.37-.55.44-.89A.63.63,0,0,0,53.36,161Zm0,0-.4.34a1,1,0,0,0-.19,1.09.35.35,0,0,0,.31.16c.43-.12.37-.55.44-.89A.63.63,0,0,0,53.36,161Zm0,0-.4.34a1,1,0,0,0-.19,1.09.35.35,0,0,0,.31.16c.43-.12.37-.55.44-.89A.63.63,0,0,0,53.36,161Zm0,0-.4.34a1,1,0,0,0-.19,1.09.35.35,0,0,0,.31.16c.43-.12.37-.55.44-.89A.63.63,0,0,0,53.36,161Zm0,0-.4.34a1,1,0,0,0-.19,1.09.35.35,0,0,0,.31.16c.43-.12.37-.55.44-.89A.63.63,0,0,0,53.36,161Zm0,0-.4.34a1,1,0,0,0-.19,1.09.35.35,0,0,0,.31.16c.43-.12.37-.55.44-.89A.63.63,0,0,0,53.36,161Zm0,0-.4.34a1,1,0,0,0-.19,1.09.35.35,0,0,0,.31.16c.43-.12.37-.55.44-.89A.63.63,0,0,0,53.36,161Zm0,0-.4.34a1,1,0,0,0-.19,1.09.35.35,0,0,0,.31.16c.43-.12.37-.55.44-.89A.63.63,0,0,0,53.36,161Z" transform="translate(0 0.03)"/><path d="M89.28,210.4h0l0,0Z" transform="translate(0 0.03)"/><path d="M148,194.55c-.25.1-.52.24-.8,0a.23.23,0,0,1,0-.35.66.66,0,0,1,.82,0C148.15,194.31,148.11,194.44,148,194.55Z" transform="translate(0 0.03)"/><path d="M153.33,209.56c-.24.23-.52.44-.83.15-.16-.16-.05-.47.18-.58C153.1,208.94,153.28,209.17,153.33,209.56Z" transform="translate(0 0.03)"/><polygon points="153.34 209.58 153.34 209.6 153.33 209.59 153.34 209.58"/><path d="M156.86,211.38c-.09.2-.27.13-.44.09a19.84,19.84,0,0,1-3.14-1.46,1.57,1.57,0,0,1,.06-.44v0c1.38-.29,2.3.86,3.43,1.33C156.92,211,156.92,211.22,156.86,211.38Z" transform="translate(0 0.03)"/><path d="M158.68,212.39c-.38,0-.65-.12-.76-.45,0,0,.05-.12.1-.13C158.38,211.75,158.55,212,158.68,212.39Z" transform="translate(0 0.03)"/><path d="M161.41,212.62H162v.3c-.22,0-.44-.07-.65-.1a2.29,2.29,0,0,1-1.43,0,.51.51,0,0,1-.08-.35c0-.15.13-.2.29-.15Z" transform="translate(0 0.03)"/><path d="M162,202.69V205a2.37,2.37,0,0,0-.59-1c-.27-.28-.71-.58-.44-1A.93.93,0,0,1,162,202.69Z" transform="translate(0 0.03)"/><path d="M162,206.07a.44.44,0,0,0,0-.1v1.59A2.58,2.58,0,0,1,162,206.07Z" transform="translate(0 0.03)"/><path d="M162,206V205A1.79,1.79,0,0,1,162,206Z" transform="translate(0 0.03)"/><path d="M74.21,212.13l-1-.69C73.94,211.34,73.94,211.34,74.21,212.13Z" transform="translate(0 0.03)"/><path d="M74.24,212.15l0,0a.06.06,0,0,1,0,0h0Z" transform="translate(0 0.03)"/><path d="M74.22,212.18a2.23,2.23,0,0,1,.09.66c0,.5-.3.72-.87.68-.91-.07-.36-.69-.55-1.14C73.59,213.1,73.89,212.6,74.22,212.18Z" transform="translate(0 0.03)"/><path d="M77,211.3a1.12,1.12,0,0,1-1.1-.31A.94.94,0,0,1,77,211.3Z" transform="translate(0 0.03)"/><path d="M78.45,218.53c.24.3.43.69.07,1s-.75-.27-1.13-.35c-.22-.32-.21-.63.08-.79A.71.71,0,0,1,78.45,218.53Z" transform="translate(0 0.03)"/><path d="M79.38,210.34c-.1-.13.35-.32.6-.37a.52.52,0,0,1,.65.36c.17,1.29,1.29,2.21,1.41,3.55a8.68,8.68,0,0,0-3.24-2.66C79.11,210.92,80,211.15,79.38,210.34Z" transform="translate(0 0.03)"/><path d="M82.86,221a1.05,1.05,0,0,1-1.15.08c-.51-.38-.71-.25-.77.3,0,.17-.09.34-.29.34s-.26-.21-.28-.37a2.29,2.29,0,0,0-.76-1.19c-.2-.22-.54-.42-.44-.76s.51-.14.78-.18c1-.17,1.83.57,2.78.72C83.21,220,83.18,220.6,82.86,221Z" transform="translate(0 0.03)"/><path d="M84,215.45a.27.27,0,0,1-.24.06c-.2-.21-.2-.46-.11-.84C84,215,84.15,215.17,84,215.45Z" transform="translate(0 0.03)"/><path d="M83.53,162.48c-.37,0-.59-.33-.78-.63s-.56-.8-.78-1.22-.83-.82-.41-1.23,1-.16,1.43.12a22.73,22.73,0,0,1,3.4,3A12.12,12.12,0,0,1,83.53,162.48Z" transform="translate(0 0.03)"/><path d="M88.76,173c0,.19-.08.36-.25.33-.53-.08-.47.41-.72.81-.12-.67.32-.86.45-1.21,0-.08.21-.13.33-.13S88.74,173,88.76,173Z" transform="translate(0 0.03)"/><path d="M89.35,219c-.59.25-1.09-.09-1.63-.3A4.28,4.28,0,0,1,85,215.39a1.12,1.12,0,0,1,0-.88,3.34,3.34,0,0,0,.42-2,.92.92,0,0,1,.66.9c.13,1.24,0,2.53.86,3.66a9.07,9.07,0,0,1-.29-1.43.78.78,0,0,1,.71-.91c.47,0,.63.37.7.74s.38.93.44,1.46-.46,1.58.9,1.33c.07,0,.27.3.33.48S89.51,219,89.35,219Z" transform="translate(0 0.03)"/><path d="M91,169.36c-.51-.42-.53-.94-.82-1.31-.15-.2-.31-.4-.09-.61s.34.2.55.21c.64,0,.62.62,1.07,1.19C91,168.64,90.67,168.65,91,169.36Z" transform="translate(0 0.03)"/><path d="M85.27,159.89c-.12-.29.19-.28.38-.28,1.66-.05,3.34-.08,4.47,1.58.43.63,1.09.43,1.61.74s1.13.63.76,1.47c-.16.35.13.85-.12,1.31a1.53,1.53,0,0,1-.33-1c0-.39-.07-.72-.52-.7s-.55.31-.56.69c0,1.24-1,2-1.23,3.19,0,.16-.2.14-.33.09a.39.39,0,0,0-.56.24c-.14.3.11.43.31.55a.54.54,0,0,1,.26.77,3.33,3.33,0,0,0-.22,1.87c-1.63-1.17-2.17-2.82-3.22-4.08a.64.64,0,0,1-.1-.18c-.13-.42-.9-.8-.43-1.2s1,.14,1.43.47a12,12,0,0,0,1.64,1.36,1.22,1.22,0,0,0,.08-.23c-1.3-1-.41-2-.12-3,.21-.66,0-.74-.53-.8-.36,0-.87,0-1-.34C86.55,161.51,85.65,160.86,85.27,159.89Z" transform="translate(0 0.03)"/><path d="M92.65,224c.08.24-.13.48-.3.37a9.61,9.61,0,0,0-1.81-.68,1,1,0,0,1-.2-.73c0-.31,0-.59-.35-.78-.87-.5-.29-1.19-.28-1.8,0-.09.38-.21.6-.23s.3.23.36.43c.15.48.34,1,.45,1.46a1.31,1.31,0,0,0,.91,1.1C92.49,223.24,92.53,223.64,92.65,224Z" transform="translate(0 0.03)"/><path d="M94.11,161.87a.72.72,0,0,1,0-1c.13-.16.29-.1.46.09,0,.34.3.74,0,1.09C94.4,162.18,94.23,162,94.11,161.87Z" transform="translate(0 0.03)"/><path d="M94.57,198.94c.11-.5.6-.27.91-.13s.81.47,1.21.7a1.8,1.8,0,0,0,0,.19,7.75,7.75,0,0,1-1.36.07A.74.74,0,0,1,94.57,198.94Z" transform="translate(0 0.03)"/><path d="M97.21,215.74c.15.43-.15.71-.53.78a3.31,3.31,0,0,0-1.53.62,2.89,2.89,0,0,0,.32-.95,1,1,0,0,1,.73-.83C96.58,215.25,97.05,215.25,97.21,215.74Z" transform="translate(0 0.03)"/><path d="M99.91,117.17c.18-.7.86-.25,1.33-.61-.13.93-.72.77-1.19.82C99.92,117.39,99.88,117.28,99.91,117.17Z" transform="translate(0 0.03)"/><path d="M100.77,208.63c0-.08.22-.09.33-.13.05.47,0,.72-.21.9s-.33,0-.33-.08A1.85,1.85,0,0,1,100.77,208.63Z" transform="translate(0 0.03)"/><path d="M98.43,160.19a16.24,16.24,0,0,1-1.08-4.64,9.94,9.94,0,0,1,.12-1.65c0-.17,0-.37.21-.39s.28.16.32.34c.57,2.68,2.12,5,3.14,7.52a1.11,1.11,0,0,1-.65,1.61,1.22,1.22,0,0,0-.54.39c-.26.3-.54.29-.69-.09a15.34,15.34,0,0,0-1.08-1.63c-.19-.34-.55-.66.11-.78C98.64,160.71,98.53,160.46,98.43,160.19Z" transform="translate(0 0.03)"/><path d="M101.25,219.33c-.17.67-.57.43-1,.42a3.74,3.74,0,0,0-1.74.39,9.16,9.16,0,0,1-3.13.59c-.41,0-.19-.57-.41-.84-.24.14-.3.61-.65.47s-.14-.53-.21-.81-.07-.59.3-.59c1.13,0,1.58-1.08,2.48-1.47.46-.2.71-.75,1.33-.22.06,0,.37-.19.6-.32-.18-.34-.4-.33-.59-.39s-.46-.32-.3-.61.36-.36.58-.14a1,1,0,0,0,1.27.18c.17.37-.05.64-.05,1,.44.1,1-.36,1.33.31s-.18.85-.67,1.12C100.85,218.61,101.45,218.56,101.25,219.33Z" transform="translate(0 0.03)"/><path d="M101.75,216c.36.27.2.67,0,1.12-.23-.51-.79-.06-.83-.27-.09-.39-.38-.91,0-1.24S101.51,215.76,101.75,216Z" transform="translate(0 0.03)"/><path d="M105.36,220.58a.49.49,0,0,1-.09.62c-.07.1-.2.19-.32.08a.42.42,0,0,1,0-.61A.31.31,0,0,1,105.36,220.58Z" transform="translate(0 0.03)"/><path d="M104.62,121.62c.38-.36.71,0,1-.13C105.35,121.81,105.07,121.89,104.62,121.62Z" transform="translate(0 0.03)"/><path d="M106.66,117.23s-.15.15-.21.14c-.39-.09-.51-.38-.53-.84C106.37,116.67,106.62,116.86,106.66,117.23Z" transform="translate(0 0.03)"/><path d="M106.48,122.12c.38.36-.08.42-.4.41l-.92,0c0-.15,0-.2.06-.21C105.62,122.14,106.15,121.81,106.48,122.12Z" transform="translate(0 0.03)"/><path d="M107.23,218.83a.29.29,0,0,1-.07.42c-.12.07-.26.09-.34,0a.33.33,0,0,1,.1-.42A.18.18,0,0,1,107.23,218.83Z" transform="translate(0 0.03)"/><path d="M107.72,123.21c-.17.33-.3.59-.65.56,0,0-.16-.23-.14-.33C107,123,107.32,123.11,107.72,123.21Z" transform="translate(0 0.03)"/><path d="M108.77,118.3a.86.86,0,0,1-.06,1.25c-.32.24-.84.7-1.31.19s.21-1,.31-1.38C108.09,118.08,108.39,117.79,108.77,118.3Z" transform="translate(0 0.03)"/><path d="M114.37,174.24l-1.07,1C113.33,174.37,113.87,174.31,114.37,174.24Z" transform="translate(0 0.03)"/><path d="M113.38,240a2.89,2.89,0,0,1,.35,1.73A1.89,1.89,0,0,1,113.38,240Z" transform="translate(0 0.03)"/><path d="M115.57,162.54a2.82,2.82,0,0,1-.8,1.73C115,163.65,114.9,162.92,115.57,162.54Z" transform="translate(0 0.03)"/><path d="M115,157.76h0v0Z" transform="translate(0 0.03)"/><path d="M115,157.76c.2-.15.43-.46.64-.23.35.4,0,.78-.13,1.18C115,158.47,115.13,158.05,115,157.76Z" transform="translate(0 0.03)"/><path d="M118.77,163.35a.87.87,0,0,1,0,.88c-.43.57-.9,1.11-1.37,1.65-.13.16-.5.22-.51.12,0-.91-.71-.9-1.29-1.08a.32.32,0,0,1-.1-.45c1-1,1.46-2.56,3-3.07.25.8-.73,1.11-.49,1.89C118.3,163.31,118.58,163,118.77,163.35Z" transform="translate(0 0.03)"/><path d="M119.12,153.94c-.23.5-.47,1-.71,1.48.23-.5-.07-1.19.26-1.69.08-.13.17-.32.36-.23S119.18,153.79,119.12,153.94Z" transform="translate(0 0.03)"/><path d="M123,151.29c0,.3-.23.5-.39.71a.4.4,0,0,1-.6.12c-.08-.05-.19-.16-.18-.22a.32.32,0,0,1,.41-.29C122.55,151.67,122.56,151.11,123,151.29Z" transform="translate(0 0.03)"/><path d="M123.26,153.15s-.16.14-.2.12a.4.4,0,1,1,.2-.12Z" transform="translate(0 0.03)"/><path d="M124.68,149.23a.46.46,0,0,1-.25.15,3.88,3.88,0,0,0-2.31,1.48c-.23-1.43.15-2,1.25-2,.27,0,.47,0,.6-.32a.57.57,0,0,1,1-.27C125.23,148.59,124.87,148.94,124.68,149.23Z" transform="translate(0 0.03)"/><path d="M125.11,183.87s-.19.09-.22.06a.4.4,0,1,1,.22-.06Z" transform="translate(0 0.03)"/><path d="M126.22,156.93a2.91,2.91,0,0,1-1.68,0A1.79,1.79,0,0,1,126.22,156.93Z" transform="translate(0 0.03)"/><path d="M126.79,183.41c.1.18,0,.31-.1.42s-.23.15-.3,0a.52.52,0,0,1,.07-.36A.21.21,0,0,1,126.79,183.41Z" transform="translate(0 0.03)"/><path d="M131,158.38a25.26,25.26,0,0,1,2.19-2.76c-1.47,3.21-6,8.73-7.28,8.92A48.66,48.66,0,0,0,131,158.38Z" transform="translate(0 0.03)"/><path d="M132.59,213.33c-.09.24-.26.24-.48.18-.77-.21-.27-.76-.36-1.15C132.14,212.63,132.84,212.62,132.59,213.33Z" transform="translate(0 0.03)"/><path d="M133,164.35c-.13.58-.2.91-.28,1.23C132.41,165.13,132.51,164.81,133,164.35Z" transform="translate(0 0.03)"/><path d="M134.73,165.8a1.81,1.81,0,0,1,0,1.64A2.23,2.23,0,0,1,134.73,165.8Z" transform="translate(0 0.03)"/><path d="M138.1,175.1l.44.86C138,175.89,137.77,175.73,138.1,175.1Z" transform="translate(0 0.03)"/><path d="M141.72,163.13c.08.2.15.38,0,.55s-.48.18-.63-.07c-.72-1.27-1.87-2.35-1.91-3.93,0-.31,0-.54.32-.65s.33.15.42.32A29.9,29.9,0,0,1,141.72,163.13Z" transform="translate(0 0.03)"/><path d="M144,159.34c.12.95-.42,1.19-1.12,1.48A2.07,2.07,0,0,1,144,159.34Z" transform="translate(0 0.03)"/><path d="M147.76,158.81a12.08,12.08,0,0,1-2.68-.35c-.57-.17,0-.41.1-.56s.53-.2.4-.43c-.3-.51-.13-.84.33-.87a1.23,1.23,0,0,1,1.16.5c.24.37.17,1.13,1,.8.15-.05.08.18.06.3S148.07,158.83,147.76,158.81Z" transform="translate(0 0.03)"/><path d="M148.35,169.2c-.15-.15-.19-.3,0-.44s.24-.07.34,0,.22.31.13.46S148.48,169.27,148.35,169.2Z" transform="translate(0 0.03)"/><path d="M149.15,171.51c-.26-.71-.65-1.1-1.38-1a.43.43,0,0,1-.46-.33c-.05-.25.19-.31.37-.39a1.35,1.35,0,0,1,1.42.29C149.66,170.47,149.34,171,149.15,171.51Z" transform="translate(0 0.03)"/><path d="M152.17,163.16c.05.43.25.87,0,1.28a3.9,3.9,0,0,0-.47,1.61c0,.29-.06.65-.43.7s-.47-.25-.64-.37c-.44-.56-.83-1.07-.1-1.57s.44-1.3.94-1.8c.12-.13.09-.44.37-.35A.53.53,0,0,1,152.17,163.16Z" transform="translate(0 0.03)"/><path d="M155.2,101.83a19.14,19.14,0,0,1-1.91,2.82A6.34,6.34,0,0,1,155.2,101.83Z" transform="translate(0 0.03)"/><path d="M156.67,159.25c-1.26-.32-2.32.67-3.54.23a3.5,3.5,0,0,0-1.42-.39c-.63,0-1.07.16-.78.95.12.32.11.6-.19.78a.35.35,0,0,1-.46-.06c-.3-.28-.23-.56-.19-.92.16-1.41,1.14-1.72,2.32-1.83.57,0,1-.27,1-.92a2,2,0,0,1,.24-.54c.15-.38.37-.8.79-.78s.33.59.43.91c.17.54.56,1,.29,1.65,0,.11,0,.34.18.29C155.94,158.41,156.16,159.18,156.67,159.25Z" transform="translate(0 0.03)"/><path d="M158.55,157.11c-.22.46-.42.94-.68,1.4A1.37,1.37,0,0,1,158.55,157.11Z" transform="translate(0 0.03)"/><path d="M162,119v6l-.34-.16a14.91,14.91,0,0,1-3.21-1.86,1.45,1.45,0,0,1-.7-1.4c.15-.59.63-.81,1.29-.84a3.38,3.38,0,0,0,2.64-1.36Z" transform="translate(0 0.03)"/><path d="M161.37,126.66a1.48,1.48,0,0,1,.63-.28v1.25l-.15.07c-.47.24-.67-.25-.85-.52S161.19,126.8,161.37,126.66Z" transform="translate(0 0.03)"/><path d="M113.42,115a1,1,0,0,1-.06,1.21C113,115.76,113.21,115.4,113.42,115Z" transform="translate(0 0.03)"/><path d="M116.94,118.59a2.9,2.9,0,0,0-1.14.29,1.35,1.35,0,0,1-1.82-1.33,8.08,8.08,0,0,1-.09-1.2,1,1,0,0,1,1.88,0c0,.36.27.74.23,1.08C115.94,118.12,116.23,118.46,116.94,118.59Z" transform="translate(0 0.03)"/><path d="M118.54,115.78c.21.21.35.44.14.71a3.74,3.74,0,0,1-2.39-.16.63.63,0,0,1,.13-.78A2.7,2.7,0,0,1,118.54,115.78Z" transform="translate(0 0.03)"/><path d="M119.28,115.13c.1.15.15.32,0,.44s-.25,0-.31-.12a.51.51,0,0,1,0-.36C119,115,119.18,115,119.28,115.13Z" transform="translate(0 0.03)"/><path d="M119.87,117.16s.08-.2.13-.2a.4.4,0,1,1-.13.2Z" transform="translate(0 0.03)"/><path d="M120.61,117.48a0,0,0,0,0,0,0h0Z" transform="translate(0 0.03)"/><path d="M120.61,117.48a1.67,1.67,0,0,1,1.75-.87c-.22.37-.45.73-.67,1.11-.13.22-.09.54-.57.42A.57.57,0,0,1,120.61,117.48Z" transform="translate(0 0.03)"/><path d="M122.37,116.61c.6.46.55,1.08-.15,1.61A4.12,4.12,0,0,1,122.37,116.61Z" transform="translate(0 0.03)"/><path d="M120.39,121.45c-.11.09-.32,0-.41.07-.15-.62.6-1-.07-1.42a.13.13,0,0,1,0-.24c.93-.4,1.48-1.51,2.71-1.37.2,0,.41,0,.55.17s0,.25-.06.36A10.55,10.55,0,0,1,120.39,121.45Z" transform="translate(0 0.03)"/><path d="M123,136.42c.05.28.16.57-.26.58-.19,0-.28-.2-.29-.37a1.19,1.19,0,0,1,.27-1.11c.17-.15.45,0,.67.07s.1.3,0,.4S122.94,136.18,123,136.42Z" transform="translate(0 0.03)"/><path d="M123.85,136.61a.21.21,0,0,1,.08-.32.25.25,0,0,1,.34.06c.09.13,0,.24-.08.32A.25.25,0,0,1,123.85,136.61Z" transform="translate(0 0.03)"/><path d="M125.46,139.51c-.33.4-.92.37-1.48.35-.29,0-.58-.24-.44-.54s.11-.45-.19-.71,0-.53.28-.6a2.55,2.55,0,0,1,2.07.62C126.08,138.9,125.83,139.23,125.46,139.51Z" transform="translate(0 0.03)"/><path d="M162,233v1.7c-1.27,0-2.55-.06-3.82-.11a3.07,3.07,0,0,1-2-.4c-.27-.21-.88-.25-.65-.74a1.1,1.1,0,0,1,1.15-.61c1.31.17,2.59-.07,3.9.08A13.67,13.67,0,0,0,162,233Z" transform="translate(0 0.03)"/><path d="M162,247.26v-.17A.15.15,0,0,1,162,247.26Z" transform="translate(0 0.03)"/><path d="M128.4,227.52c-.27.25-.5.21-.83-.11A.58.58,0,0,1,128.4,227.52Z" transform="translate(0 0.03)"/><path d="M53.52,161.67c-.07.34,0,.77-.44.89a.35.35,0,0,1-.31-.16,1,1,0,0,1,.19-1.09l.4-.34A.63.63,0,0,1,53.52,161.67Z" transform="translate(0 0.03)"/><path d="M89.82,237.93a.24.24,0,0,1-.34-.11.31.31,0,0,1,0-.27c.11-.12.24-.05.35.06S90,237.86,89.82,237.93Z" transform="translate(0 0.03)"/><path d="M80.33,102.75c-.26.54-.73.45-1.16.28-.23-.09-.19-.25,0-.35l.09-.06c.3.46.61.37.92.14l0,0Z" transform="translate(0 0.03)"/><path d="M110.05,104.66a8.86,8.86,0,0,1-2.57,0,4.69,4.69,0,0,0-.53,0Z" transform="translate(0 0.03)"/><path d="M80.33,102.75h-.19a1.55,1.55,0,0,1-.64-.08l.67.06Z" transform="translate(0 0.03)"/><path d="M89.28,210.4v0l0,0Z" transform="translate(0 0.03)"/><path d="M107,104.65a16.06,16.06,0,0,0,3.1,0Z" transform="translate(0 0.03)"/><path d="M122.46,178.27a.75.75,0,0,0,.07-.12" transform="translate(0 0.03)"/><path d="M72.5,232.23l-1-2.34c.8.6.81,1.52,1.31,2.24Z" transform="translate(0 0.03)"/><path d="M80.33,102.75c-.26.54-.73.45-1.16.28-.23-.09-.19-.25,0-.35l.09-.06.28.06.67.06Z" transform="translate(0 0.03)"/><path d="M62.7,155.14a.83.83,0,0,1-.41-1Z" transform="translate(0 0.03)"/><path d="M162,119v6l-.34-.16a14.91,14.91,0,0,1-3.21-1.86,1.45,1.45,0,0,1-.7-1.4c.15-.59.63-.81,1.29-.84a3.38,3.38,0,0,0,2.64-1.36Z" transform="translate(0 0.03)"/><path d="M162,126.38v1.25l-.15.07c-.47.24-.67-.25-.85-.52s.19-.38.37-.52A1.48,1.48,0,0,1,162,126.38Z" transform="translate(0 0.03)"/><path d="M162,202.69V205a2.37,2.37,0,0,0-.59-1c-.27-.28-.71-.58-.44-1A.93.93,0,0,1,162,202.69Z" transform="translate(0 0.03)"/><path d="M162,206v1.59a2.58,2.58,0,0,1,0-1.49A.44.44,0,0,0,162,206Z" transform="translate(0 0.03)"/><path d="M92.49,163.4c-.16.35.13.85-.12,1.31a1.53,1.53,0,0,1-.33-1c0-.39-.07-.72-.52-.7s-.55.31-.56.69c0,1.24-1,2-1.23,3.19,0,.16-.2.14-.33.09a.39.39,0,0,0-.56.24c-.14.3.11.43.31.55a.54.54,0,0,1,.26.77,3.33,3.33,0,0,0-.22,1.87c-1.63-1.17-2.17-2.82-3.22-4.08a.64.64,0,0,1-.1-.18c-.13-.42-.9-.8-.43-1.2s1,.14,1.43.47a12,12,0,0,0,1.64,1.36,1.22,1.22,0,0,0,.08-.23c-1.3-1-.41-2-.12-3,.21-.66,0-.74-.53-.8-.36,0-.87,0-1-.34-.38-1-1.28-1.64-1.66-2.61-.12-.29.19-.28.38-.28,1.66-.05,3.34-.08,4.47,1.58.43.63,1.09.43,1.61.74S92.86,162.56,92.49,163.4Z" transform="translate(0 0.03)"/><path d="M101.25,219.33c-.17.67-.57.43-1,.42a3.74,3.74,0,0,0-1.74.39,9.16,9.16,0,0,1-3.13.59c-.41,0-.19-.57-.41-.84-.24.14-.3.61-.65.47s-.14-.53-.21-.81-.07-.59.3-.59c1.13,0,1.58-1.08,2.48-1.47.46-.2.71-.75,1.33-.22.06,0,.37-.19.6-.32-.18-.34-.4-.33-.59-.39s-.46-.32-.3-.61.36-.36.58-.14a1,1,0,0,0,1.27.18c.17.37-.05.64-.05,1,.44.1,1-.36,1.33.31s-.18.85-.67,1.12C100.85,218.61,101.45,218.56,101.25,219.33Z" transform="translate(0 0.03)"/><path d="M100.49,163a1.22,1.22,0,0,0-.54.39c-.26.3-.54.29-.69-.09a15.34,15.34,0,0,0-1.08-1.63c-.19-.34-.55-.66.11-.78.35-.16.24-.41.14-.68a16.24,16.24,0,0,1-1.08-4.64,9.94,9.94,0,0,1,.12-1.65c0-.17,0-.37.21-.39s.28.16.32.34c.57,2.68,2.12,5,3.14,7.52A1.11,1.11,0,0,1,100.49,163Z" transform="translate(0 0.03)"/><path d="M89.35,219c-.59.25-1.09-.09-1.63-.3A4.28,4.28,0,0,1,85,215.39a1.12,1.12,0,0,1,0-.88,3.34,3.34,0,0,0,.42-2,.92.92,0,0,1,.66.9c.13,1.24,0,2.53.86,3.66a9.07,9.07,0,0,1-.29-1.43.78.78,0,0,1,.71-.91c.47,0,.63.37.7.74s.38.93.44,1.46-.46,1.58.9,1.33c.07,0,.27.3.33.48S89.51,219,89.35,219Z" transform="translate(0 0.03)"/><path d="M156.67,159.25c-1.26-.32-2.32.67-3.54.23a3.5,3.5,0,0,0-1.42-.39c-.63,0-1.07.16-.78.95.12.32.11.6-.19.78a.35.35,0,0,1-.46-.06c-.3-.28-.23-.56-.19-.92.16-1.41,1.14-1.72,2.32-1.83.57,0,1-.27,1-.92a2,2,0,0,1,.24-.54c.15-.38.37-.8.79-.78s.33.59.43.91c.17.54.56,1,.29,1.65,0,.11,0,.34.18.29C155.94,158.41,156.16,159.18,156.67,159.25Z" transform="translate(0 0.03)"/><path d="M86.39,162.57a12.12,12.12,0,0,1-2.86-.09c-.37,0-.59-.33-.78-.63s-.56-.8-.78-1.22-.83-.82-.41-1.23,1-.16,1.43.12A22.73,22.73,0,0,1,86.39,162.57Z" transform="translate(0 0.03)"/><path d="M118.8,164.23c-.43.57-.9,1.11-1.37,1.65-.13.16-.5.22-.51.12,0-.91-.71-.9-1.29-1.08a.32.32,0,0,1-.1-.45c1-1,1.46-2.56,3-3.07.25.8-.73,1.11-.49,1.89.21,0,.49-.3.68.06A.87.87,0,0,1,118.8,164.23Z" transform="translate(0 0.03)"/><path d="M82.86,221a1.05,1.05,0,0,1-1.15.08c-.51-.38-.71-.25-.77.3,0,.17-.09.34-.29.34s-.26-.21-.28-.37a2.29,2.29,0,0,0-.76-1.19c-.2-.22-.54-.42-.44-.76s.51-.14.78-.18c1-.17,1.83.57,2.78.72C83.21,220,83.18,220.6,82.86,221Z" transform="translate(0 0.03)"/><path d="M92.35,224.34a9.61,9.61,0,0,0-1.81-.68,1,1,0,0,1-.2-.73c0-.31,0-.59-.35-.78-.87-.5-.29-1.19-.28-1.8,0-.09.38-.21.6-.23s.3.23.36.43c.15.48.34,1,.45,1.46a1.31,1.31,0,0,0,.91,1.1c.46.13.5.53.62.86S92.52,224.45,92.35,224.34Z" transform="translate(0 0.03)"/><path d="M133.23,155.62c-1.47,3.21-6,8.73-7.28,8.92a48.66,48.66,0,0,0,5.09-6.16A25.26,25.26,0,0,1,133.23,155.62Z" transform="translate(0 0.03)"/><path d="M141.69,163.68c-.22.11-.48.18-.63-.07-.72-1.27-1.87-2.35-1.91-3.93,0-.31,0-.54.32-.65s.33.15.42.32a29.9,29.9,0,0,1,1.83,3.78C141.8,163.33,141.87,163.51,141.69,163.68Z" transform="translate(0 0.03)"/><path d="M152.18,164.44a3.9,3.9,0,0,0-.47,1.61c0,.29-.06.65-.43.7s-.47-.25-.64-.37c-.44-.56-.83-1.07-.1-1.57s.44-1.3.94-1.8c.12-.13.09-.44.37-.35a.53.53,0,0,1,.32.5C152.22,163.59,152.42,164,152.18,164.44Z" transform="translate(0 0.03)"/><path d="M148.12,158.2c0,.26-.05.63-.36.61a12.08,12.08,0,0,1-2.68-.35c-.57-.17,0-.41.1-.56s.53-.2.4-.43c-.3-.51-.13-.84.33-.87a1.23,1.23,0,0,1,1.16.5c.24.37.17,1.13,1,.8C148.21,157.85,148.14,158.08,148.12,158.2Z" transform="translate(0 0.03)"/><path d="M82,213.88a8.68,8.68,0,0,0-3.24-2.66c.31-.3,1.17-.07.58-.88-.1-.13.35-.32.6-.37a.52.52,0,0,1,.65.36C80.8,211.62,81.92,212.54,82,213.88Z" transform="translate(0 0.03)"/><path d="M124.68,149.23a.46.46,0,0,1-.25.15,3.88,3.88,0,0,0-2.31,1.48c-.23-1.43.15-2,1.25-2,.27,0,.47,0,.6-.32a.57.57,0,0,1,1-.27C125.23,148.59,124.87,148.94,124.68,149.23Z" transform="translate(0 0.03)"/><path d="M156.86,211.38c-.09.2-.27.13-.44.09a19.84,19.84,0,0,1-3.14-1.46,1.57,1.57,0,0,1,.06-.44v0c1.38-.29,2.3.86,3.43,1.33C156.92,211,156.92,211.22,156.86,211.38Z" transform="translate(0 0.03)"/><path d="M108.71,119.55c-.32.24-.84.7-1.31.19s.21-1,.31-1.38c.38-.28.68-.57,1.06-.06A.86.86,0,0,1,108.71,119.55Z" transform="translate(0 0.03)"/><path d="M96.68,216.52a3.31,3.31,0,0,0-1.53.62,2.89,2.89,0,0,0,.32-.95,1,1,0,0,1,.73-.83c.38-.11.85-.11,1,.38S97.06,216.45,96.68,216.52Z" transform="translate(0 0.03)"/><path d="M149.15,171.51c-.26-.71-.65-1.1-1.38-1a.43.43,0,0,1-.46-.33c-.05-.25.19-.31.37-.39a1.35,1.35,0,0,1,1.42.29C149.66,170.47,149.34,171,149.15,171.51Z" transform="translate(0 0.03)"/><path d="M96.69,199.51a1.8,1.8,0,0,0,0,.19,7.75,7.75,0,0,1-1.36.07.74.74,0,0,1-.71-.83c.11-.5.6-.27.91-.13S96.29,199.28,96.69,199.51Z" transform="translate(0 0.03)"/><path d="M155.2,101.83a19.14,19.14,0,0,1-1.91,2.82A6.34,6.34,0,0,1,155.2,101.83Z" transform="translate(0 0.03)"/><path d="M78.52,219.5c-.47.36-.75-.27-1.13-.35-.22-.32-.21-.63.08-.79a.71.71,0,0,1,1,.17C78.69,218.83,78.88,219.22,78.52,219.5Z" transform="translate(0 0.03)"/><path d="M91,169.36c-.51-.42-.53-.94-.82-1.31-.15-.2-.31-.4-.09-.61s.34.2.55.21c.64,0,.62.62,1.07,1.19C91,168.64,90.67,168.65,91,169.36Z" transform="translate(0 0.03)"/><path d="M101.75,217.07c-.23-.51-.79-.06-.83-.27-.09-.39-.38-.91,0-1.24s.63.2.87.39S102,216.62,101.75,217.07Z" transform="translate(0 0.03)"/><path d="M74.24,212.15l0,0a.06.06,0,0,1,0,0Z" transform="translate(0 0.03)"/><path d="M74.31,212.84c0,.5-.3.72-.87.68-.91-.07-.36-.69-.55-1.14.7.72,1,.22,1.33-.2A2.23,2.23,0,0,1,74.31,212.84Z" transform="translate(0 0.03)"/><path d="M132.59,213.33c-.09.24-.26.24-.48.18-.77-.21-.27-.76-.36-1.15C132.14,212.63,132.84,212.62,132.59,213.33Z" transform="translate(0 0.03)"/><path d="M142.84,160.82a2.07,2.07,0,0,1,1.12-1.48C144.08,160.29,143.54,160.53,142.84,160.82Z" transform="translate(0 0.03)"/><path d="M94.52,162.05c-.12.13-.29,0-.41-.18a.72.72,0,0,1,0-1c.13-.16.29-.1.46.09C94.49,161.3,94.82,161.7,94.52,162.05Z" transform="translate(0 0.03)"/><path d="M119.12,153.94c-.23.5-.47,1-.71,1.48.23-.5-.07-1.19.26-1.69.08-.13.17-.32.36-.23S119.18,153.79,119.12,153.94Z" transform="translate(0 0.03)"/><path d="M115.57,162.54a2.82,2.82,0,0,1-.8,1.73C115,163.65,114.9,162.92,115.57,162.54Z" transform="translate(0 0.03)"/><path d="M161.35,212.83a2.29,2.29,0,0,1-1.43,0,.51.51,0,0,1-.08-.35c0-.15.13-.2.29-.15l1.28.33C161.49,212.72,161.49,212.8,161.35,212.83Z" transform="translate(0 0.03)"/><path d="M101.24,116.56c-.13.93-.72.77-1.19.82-.13,0-.17-.1-.14-.21C100.09,116.47,100.77,116.92,101.24,116.56Z" transform="translate(0 0.03)"/><path d="M106.08,122.53l-.92,0c0-.15,0-.2.06-.21.4-.21.93-.54,1.26-.23S106.4,122.54,106.08,122.53Z" transform="translate(0 0.03)"/><path d="M114.37,174.24l-1.07,1C113.33,174.37,113.87,174.31,114.37,174.24Z" transform="translate(0 0.03)"/><path d="M123,151.29c0,.3-.23.5-.39.71a.4.4,0,0,1-.6.12c-.08-.05-.19-.16-.18-.22a.32.32,0,0,1,.41-.29C122.55,151.67,122.56,151.11,123,151.29Z" transform="translate(0 0.03)"/><path d="M114.93,157.73l0,0h0Z" transform="translate(0 0.03)"/><path d="M115.46,158.71c-.43-.24-.33-.66-.51-1,.2-.15.43-.46.64-.23C115.94,157.93,115.6,158.31,115.46,158.71Z" transform="translate(0 0.03)"/><path d="M88.51,173.37c-.53-.08-.47.41-.72.81-.12-.67.32-.86.45-1.21,0-.08.21-.13.33-.13s.17.12.19.2S88.68,173.4,88.51,173.37Z" transform="translate(0 0.03)"/><path d="M153.33,209.56c-.24.23-.52.44-.83.15-.16-.16-.05-.47.18-.58C153.1,208.94,153.28,209.17,153.33,209.56Z" transform="translate(0 0.03)"/><polygon points="153.34 209.58 153.34 209.6 153.33 209.59 153.34 209.58"/><path d="M148,194.55c-.25.1-.52.24-.8,0a.23.23,0,0,1,0-.35.66.66,0,0,1,.82,0C148.15,194.31,148.11,194.44,148,194.55Z" transform="translate(0 0.03)"/><path d="M158.55,157.11c-.22.46-.42.94-.68,1.4A1.37,1.37,0,0,1,158.55,157.11Z" transform="translate(0 0.03)"/><path d="M126.22,156.93a2.91,2.91,0,0,1-1.68,0A1.79,1.79,0,0,1,126.22,156.93Z" transform="translate(0 0.03)"/><path d="M106.66,117.23s-.15.15-.21.14c-.39-.09-.51-.38-.53-.84C106.37,116.67,106.62,116.86,106.66,117.23Z" transform="translate(0 0.03)"/><path d="M134.76,167.44a2.23,2.23,0,0,1,0-1.64A1.81,1.81,0,0,1,134.76,167.44Z" transform="translate(0 0.03)"/><path d="M105.27,221.2c-.07.1-.2.19-.32.08a.42.42,0,0,1,0-.61.31.31,0,0,1,.44-.09A.49.49,0,0,1,105.27,221.2Z" transform="translate(0 0.03)"/><path d="M113.73,241.74a1.89,1.89,0,0,1-.35-1.73A2.89,2.89,0,0,1,113.73,241.74Z" transform="translate(0 0.03)"/><path d="M107.72,123.21c-.17.33-.3.59-.65.56,0,0-.16-.23-.14-.33C107,123,107.32,123.11,107.72,123.21Z" transform="translate(0 0.03)"/><path d="M162,212.63v.3c-.22,0-.44-.07-.65-.1l.06-.21Z" transform="translate(0 0.03)"/><path d="M123.26,153.15s-.16.14-.2.12a.4.4,0,1,1,.2-.12Z" transform="translate(0 0.03)"/><path d="M100.89,209.4c-.1.08-.33,0-.33-.08a1.85,1.85,0,0,1,.21-.69c0-.08.22-.09.33-.13C101.15,209,101.1,209.22,100.89,209.4Z" transform="translate(0 0.03)"/><path d="M133,164.35c-.13.58-.2.91-.28,1.23C132.41,165.13,132.51,164.81,133,164.35Z" transform="translate(0 0.03)"/><path d="M74.21,212.13l-1-.69C73.94,211.34,73.94,211.34,74.21,212.13Z" transform="translate(0 0.03)"/><path d="M74.21,212.14h0l0,0Z" transform="translate(0 0.03)"/><path d="M158.68,212.39c-.38,0-.65-.12-.76-.45,0,0,.05-.12.1-.13C158.38,211.75,158.55,212,158.68,212.39Z" transform="translate(0 0.03)"/><path d="M125.11,183.87s-.19.09-.22.06a.4.4,0,1,1,.22-.06Z" transform="translate(0 0.03)"/><path d="M77,211.3a1.12,1.12,0,0,1-1.1-.31A.94.94,0,0,1,77,211.3Z" transform="translate(0 0.03)"/><path d="M148.77,169.26c-.14.21-.29,0-.42-.06s-.19-.3,0-.44.24-.07.34,0S148.86,169.11,148.77,169.26Z" transform="translate(0 0.03)"/><path d="M105.6,121.49c-.25.32-.53.4-1,.13C105,121.26,105.33,121.66,105.6,121.49Z" transform="translate(0 0.03)"/><path d="M138.54,176c-.53-.07-.77-.23-.44-.86Z" transform="translate(0 0.03)"/><path d="M84,215.45a.27.27,0,0,1-.24.06c-.2-.21-.2-.46-.11-.84C84,215,84.15,215.17,84,215.45Z" transform="translate(0 0.03)"/><path d="M126.69,183.83c-.09.11-.23.15-.3,0a.52.52,0,0,1,.07-.36.21.21,0,0,1,.33-.05C126.89,183.59,126.79,183.72,126.69,183.83Z" transform="translate(0 0.03)"/><path d="M107.16,219.25c-.12.07-.26.09-.34,0a.33.33,0,0,1,.1-.42.18.18,0,0,1,.31,0A.29.29,0,0,1,107.16,219.25Z" transform="translate(0 0.03)"/><path d="M116.94,118.59a2.9,2.9,0,0,0-1.14.29,1.35,1.35,0,0,1-1.82-1.33,8.08,8.08,0,0,1-.09-1.2,1,1,0,0,1,1.88,0c0,.36.27.74.23,1.08C115.94,118.12,116.23,118.46,116.94,118.59Z" transform="translate(0 0.03)"/><path d="M123.12,119a10.55,10.55,0,0,1-2.73,2.43c-.11.09-.32,0-.41.07-.15-.62.6-1-.07-1.42a.13.13,0,0,1,0-.24c.93-.4,1.48-1.51,2.71-1.37.2,0,.41,0,.55.17S123.2,118.91,123.12,119Z" transform="translate(0 0.03)"/><path d="M125.46,139.51c-.33.4-.92.37-1.48.35-.29,0-.58-.24-.44-.54s.11-.45-.19-.71,0-.53.28-.6a2.55,2.55,0,0,1,2.07.62C126.08,138.9,125.83,139.23,125.46,139.51Z" transform="translate(0 0.03)"/><path d="M118.68,116.49a3.74,3.74,0,0,1-2.39-.16.63.63,0,0,1,.13-.78,2.7,2.7,0,0,1,2.12.23C118.75,116,118.89,116.22,118.68,116.49Z" transform="translate(0 0.03)"/><path d="M122.36,116.61c-.22.37-.45.73-.67,1.11-.13.22-.09.54-.57.42a.57.57,0,0,1-.51-.66A1.67,1.67,0,0,1,122.36,116.61Z" transform="translate(0 0.03)"/><path d="M123.33,136c-.16.11-.39.19-.34.43s.16.57-.26.58c-.19,0-.28-.2-.29-.37a1.19,1.19,0,0,1,.27-1.11c.17-.15.45,0,.67.07S123.48,135.89,123.33,136Z" transform="translate(0 0.03)"/><path d="M122.22,118.22a4.12,4.12,0,0,1,.15-1.61C123,117.07,122.92,117.69,122.22,118.22Z" transform="translate(0 0.03)"/><path d="M113.36,116.25c-.38-.49-.15-.85.06-1.21A1,1,0,0,1,113.36,116.25Z" transform="translate(0 0.03)"/><path d="M124.19,136.67a.25.25,0,0,1-.34-.06.21.21,0,0,1,.08-.32.25.25,0,0,1,.34.06C124.36,136.48,124.3,136.59,124.19,136.67Z" transform="translate(0 0.03)"/><path d="M120.6,117.45a.56.56,0,0,1-.73-.29s.08-.2.13-.2A.55.55,0,0,1,120.6,117.45Z" transform="translate(0 0.03)"/><path d="M120.61,117.45v0a0,0,0,0,0,0,0Z" transform="translate(0 0.03)"/><path d="M119.29,115.57c-.12.11-.25,0-.31-.12a.51.51,0,0,1,0-.36c.08-.13.22-.07.32,0S119.43,115.45,119.29,115.57Z" transform="translate(0 0.03)"/><path d="M162,233v1.7c-1.27,0-2.55-.06-3.82-.11a3.07,3.07,0,0,1-2-.4c-.27-.21-.88-.25-.65-.74a1.1,1.1,0,0,1,1.15-.61c1.31.17,2.59-.07,3.9.08A13.67,13.67,0,0,0,162,233Z" transform="translate(0 0.03)"/><path d="M128.4,227.52c-.27.25-.5.21-.83-.11A.58.58,0,0,1,128.4,227.52Z" transform="translate(0 0.03)"/><path d="M53.52,161.67c-.07.34,0,.77-.44.89a.35.35,0,0,1-.31-.16,1,1,0,0,1,.19-1.09l.4-.34A.63.63,0,0,1,53.52,161.67Z" transform="translate(0 0.03)"/><path d="M89.82,237.93a.24.24,0,0,1-.34-.11.31.31,0,0,1,0-.27c.11-.12.24-.05.35.06S90,237.86,89.82,237.93Z" transform="translate(0 0.03)"/><polyline points="162 246.49 162 247.12 162 247.29 162 329.97 162 330"/><line x1="162" y1="237.8" x2="162" y2="235.97"/><line x1="162" y1="226.73" x2="162" y2="219.9"/><line x1="162" y1="212.96" x2="162" y2="212.66"/><polyline points="162 207.59 162 206 162 205.05 162 202.72"/><line x1="162" y1="199.28" x2="162" y2="198.7"/><line x1="162" y1="179.41" x2="162" y2="172.33"/><polyline points="162 127.66 162 126.41 162 125.03 162 118.99"/><line x1="162" y1="105.42" x2="162" y2="95.55"/><polyline points="162 91.22 162 0.03 162 0"/></g></g></svg>